<svg version="1.1" viewBox="0.0 0.0 960.0 540.0" fill="none" stroke="none" stroke-linecap="square" stroke-miterlimit="10" xmlns:xlink="http://www.w3.org/1999/xlink" xmlns="http://www.w3.org/2000/svg"><clipPath id="gc692dc1958_0_24.0"><path d="m0 0l960.0 0l0 540.0l-960.0 0l0 -540.0z" clip-rule="nonzero"/></clipPath><g clip-path="url(#gc692dc1958_0_24.0)"><path fill="#ffffff" d="m0 0l960.0 0l0 540.0l-960.0 0z" fill-rule="evenodd"/><g filter="url(#shadowFilter-gc692dc1958_0_24.1)"><use xlink:href="#gc692dc1958_0_24.1" transform="matrix(1.0 0.0 0.0 1.0 0.0 2.0)"/></g><defs><filter id="shadowFilter-gc692dc1958_0_24.1" filterUnits="userSpaceOnUse"><feGaussianBlur in="SourceAlpha" stdDeviation="2.0" result="blur"/><feComponentTransfer in="blur" color-interpolation-filters="sRGB"><feFuncR type="linear" slope="0" intercept="0.0"/><feFuncG type="linear" slope="0" intercept="0.0"/><feFuncB type="linear" slope="0" intercept="0.0"/><feFuncA type="linear" slope="0.5" intercept="0"/></feComponentTransfer></filter></defs><g id="gc692dc1958_0_24.1"><path fill="#d9d9d9" d="m29.76903 129.62466l0 -82.20471l16.188974 0l0 82.20471z" fill-rule="evenodd"/><path stroke="#595959" stroke-width="1.0" stroke-linejoin="round" stroke-linecap="butt" d="m29.76903 129.62466l0 -82.20471l16.188974 0l0 82.20471z" fill-rule="evenodd"/><path fill="#000000" d="m40.676643 98.951996l0.1875 -1.390625q1.421875 0.234375 2.234375 1.171875q0.8125 0.921875 0.8125 2.28125q0 1.703125 -1.109375 2.75q-1.125 1.03125 -3.203125 1.03125q-1.34375 0 -2.34375 -0.4375q-1.015625 -0.453125 -1.515625 -1.359375q-0.5 -0.921875 -0.5 -1.984375q0 -1.359375 0.6875 -2.21875q0.671875 -0.859375 1.9375 -1.09375l0.203125 1.359375q-0.828125 0.203125 -1.25 0.703125q-0.421875 0.484375 -0.421875 1.1875q0 1.0625 0.765625 1.734375q0.75 0.65625 2.40625 0.65625q1.671875 0 2.4375 -0.640625q0.75 -0.640625 0.75 -1.671875q0 -0.828125 -0.5 -1.375q-0.515625 -0.5625 -1.578125 -0.703125zm-1.109375 -2.0625q-2.296875 0 -3.40625 -1.28125q-0.921875 -1.078125 -0.921875 -2.609375q0 -1.71875 1.125 -2.796875q1.109375 -1.09375 3.09375 -1.09375q1.59375 0 2.515625 0.484375q0.921875 0.484375 1.4375 1.40625q0.5 0.90625 0.5 2.0q0 1.734375 -1.109375 2.8125q-1.125 1.078125 -3.234375 1.078125zm0 -1.453125q1.59375 0 2.390625 -0.6875q0.796875 -0.703125 0.796875 -1.75q0 -1.046875 -0.796875 -1.734375q-0.796875 -0.703125 -2.4375 -0.703125q-1.53125 0 -2.328125 0.703125q-0.796875 0.6875 -0.796875 1.734375q0 1.046875 0.796875 1.75q0.78125 0.6875 2.375 0.6875zm4.15625 -7.9765625l-8.296875 0l0 -1.265625l1.171875 0q-1.359375 -0.90625 -1.359375 -2.640625q0 -0.75 0.265625 -1.375q0.265625 -0.625 0.703125 -0.9375q0.4375 -0.3125 1.046875 -0.4375q0.390625 -0.078125 1.359375 -0.078125l5.109375 0l0 1.40625l-5.046875 0q-0.859375 0 -1.28125 0.171875q-0.4375 0.15625 -0.6875 0.578125q-0.25 0.40625 -0.25 0.96875q0 0.90625 0.578125 1.5625q0.5625 0.640625 2.15625 0.640625l4.53125 0l0 1.40625zm0 -11.1953125l-8.296875 3.15625l0 -1.484375l4.96875 -1.78125q0.796875 -0.296875 1.671875 -0.53125q-0.65625 -0.1875 -1.578125 -0.53125l-5.0625 -1.84375l0 -1.4375l8.296875 3.140625l0 1.3125z" fill-rule="nonzero"/></g><g filter="url(#shadowFilter-gc692dc1958_0_24.2)"><use xlink:href="#gc692dc1958_0_24.2" transform="matrix(1.0 0.0 0.0 1.0 0.0 2.0)"/></g><defs><filter id="shadowFilter-gc692dc1958_0_24.2" filterUnits="userSpaceOnUse"><feGaussianBlur in="SourceAlpha" stdDeviation="2.0" result="blur"/><feComponentTransfer in="blur" color-interpolation-filters="sRGB"><feFuncR type="linear" slope="0" intercept="0.0"/><feFuncG type="linear" slope="0" intercept="0.0"/><feFuncB type="linear" slope="0" intercept="0.0"/><feFuncA type="linear" slope="0.5" intercept="0"/></feComponentTransfer></filter></defs><g id="gc692dc1958_0_24.2"><path fill="#d9d9d9" d="m52.76378 129.62466l0 -82.20471l16.18898 0l0 82.20471z" fill-rule="evenodd"/><path stroke="#595959" stroke-width="1.0" stroke-linejoin="round" stroke-linecap="butt" d="m52.76378 129.62466l0 -82.20471l16.18898 0l0 82.20471z" fill-rule="evenodd"/><path fill="#000000" d="m66.71827 95.06137l0 1.3125l-11.453129 0l0 -1.40625l4.078125 0q-1.109375 -0.890625 -1.109375 -2.28125q0 -0.765625 0.3125 -1.4375q0.296875 -0.6875 0.859375 -1.125q0.5625 -0.453125 1.359375 -0.703125q0.78125 -0.25 1.671875 -0.25q2.1406288 0 3.3125038 1.0625q1.15625 1.046875 1.15625 2.53125q0 1.46875 -1.234375 2.296875l1.046875 0zm-4.218754 0.015625q1.5 0 2.1562538 -0.40625q1.09375 -0.65625 1.09375 -1.796875q0 -0.921875 -0.796875 -1.59375q-0.8125 -0.671875 -2.3906288 -0.671875q-1.625 0 -2.390625 0.65625q-0.78125 0.640625 -0.78125 1.546875q0 0.921875 0.796875 1.59375q0.796875 0.671875 2.3125 0.671875zm4.218754 -7.6171875l-8.296879 0l0 -1.265625l1.171875 0q-1.359375 -0.90625 -1.359375 -2.640625q0 -0.75 0.265625 -1.375q0.265625 -0.625 0.703125 -0.9375q0.4375 -0.3125 1.046875 -0.4375q0.390625 -0.078125 1.359375 -0.078125l5.109379 0l0 1.40625l-5.046879 0q-0.859375 0 -1.28125 0.171875q-0.4375 0.15625 -0.6875 0.578125q-0.25 0.40625 -0.25 0.96875q0 0.90625 0.578125 1.5625q0.5625 0.640625 2.15625 0.640625l4.531254 0l0 1.40625z" fill-rule="nonzero"/></g><g filter="url(#shadowFilter-gc692dc1958_0_24.3)"><use xlink:href="#gc692dc1958_0_24.3" transform="matrix(1.0 0.0 0.0 1.0 0.0 2.0)"/></g><defs><filter id="shadowFilter-gc692dc1958_0_24.3" filterUnits="userSpaceOnUse"><feGaussianBlur in="SourceAlpha" stdDeviation="2.0" result="blur"/><feComponentTransfer in="blur" color-interpolation-filters="sRGB"><feFuncR type="linear" slope="0" intercept="0.0"/><feFuncG type="linear" slope="0" intercept="0.0"/><feFuncB type="linear" slope="0" intercept="0.0"/><feFuncA type="linear" slope="0.5" intercept="0"/></feComponentTransfer></filter></defs><g id="gc692dc1958_0_24.3"><path fill="#d9d9d9" d="m75.75853 129.62466l0 -82.20471l16.18898 0l0 82.20471z" fill-rule="evenodd"/><path stroke="#595959" stroke-width="1.0" stroke-linejoin="round" stroke-linecap="butt" d="m75.75853 129.62466l0 -82.20471l16.18898 0l0 82.20471z" fill-rule="evenodd"/><path fill="#000000" d="m89.71302 100.81528l-8.296875 0l0 -1.265625l1.25 0q-0.875 -0.484375 -1.15625 -0.890625q-0.28125 -0.40625 -0.28125 -0.90625q0 -0.703125 0.453125 -1.4375l1.296875 0.484375q-0.296875 0.515625 -0.296875 1.03125q0 0.453125 0.28125 0.828125q0.265625 0.359375 0.765625 0.515625q0.75 0.234375 1.640625 0.234375l4.34375 0l0 1.40625zm-2.671875 -11.015625l0.171875 -1.453125q1.28125 0.34375 1.984375 1.28125q0.703125 0.921875 0.703125 2.359375q0 1.828125 -1.125 2.890625q-1.125 1.0625 -3.140625 1.0625q-2.09375 0 -3.25 -1.078125q-1.15625 -1.078125 -1.15625 -2.796875q0 -1.65625 1.140625 -2.703125q1.125 -1.0625 3.171875 -1.0625q0.125 0 0.375 0l0 6.1875q1.375 -0.078125 2.109375 -0.765625q0.71875 -0.703125 0.71875 -1.734375q0 -0.78125 -0.40625 -1.328125q-0.40625 -0.546875 -1.296875 -0.859375zm-2.28125 4.609375l0 -4.625q-1.046875 0.09375 -1.5625 0.53125q-0.8125 0.671875 -0.8125 1.734375q0 0.96875 0.65625 1.640625q0.640625 0.65625 1.71875 0.71875zm4.953125 -7.8046875l-11.453125 0l0 -1.40625l11.453125 0l0 1.40625zm0 -9.0234375l-1.21875 0q1.40625 0.96875 1.40625 2.640625q0 0.734375 -0.28125 1.375q-0.28125 0.625 -0.703125 0.9375q-0.4375 0.3125 -1.046875 0.4375q-0.421875 0.078125 -1.3125 0.078125l-5.140625 0l0 -1.40625l4.59375 0q1.109375 0 1.484375 -0.078125q0.5625 -0.140625 0.875 -0.5625q0.3125 -0.4375 0.3125 -1.0625q0 -0.640625 -0.3125 -1.1875q-0.328125 -0.5625 -0.890625 -0.78125q-0.5625 -0.234375 -1.625 -0.234375l-4.4375 0l0 -1.40625l8.296875 0l0 1.25z" fill-rule="nonzero"/></g><g filter="url(#shadowFilter-gc692dc1958_0_24.4)"><use xlink:href="#gc692dc1958_0_24.4" transform="matrix(1.0 0.0 0.0 1.0 0.0 2.0)"/></g><defs><filter id="shadowFilter-gc692dc1958_0_24.4" filterUnits="userSpaceOnUse"><feGaussianBlur in="SourceAlpha" stdDeviation="2.0" result="blur"/><feComponentTransfer in="blur" color-interpolation-filters="sRGB"><feFuncR type="linear" slope="0" intercept="0.0"/><feFuncG type="linear" slope="0" intercept="0.0"/><feFuncB type="linear" slope="0" intercept="0.0"/><feFuncA type="linear" slope="0.5" intercept="0"/></feComponentTransfer></filter></defs><g id="gc692dc1958_0_24.4"><path fill="#c9daf8" d="m153.54861 235.97113l0 -82.55118l48.0 0l0 82.55118z" fill-rule="evenodd"/><path stroke="#595959" stroke-width="1.0" stroke-linejoin="round" stroke-linecap="butt" d="m153.54861 235.97113l0 -82.55118l48.0 0l0 82.55118z" fill-rule="evenodd"/><path fill="#000000" d="m184.46861 218.91443l-13.359375 0l0 -1.640625l13.359375 0l0 1.640625zm-1.1875 -10.504196q0.765625 0.921875 1.09375 1.765625q0.3125 0.828125 0.3125 1.796875q0 1.59375 -0.78125 2.453125q-0.78125 0.859375 -1.984375 0.859375q-0.71875 0 -1.296875 -0.328125q-0.59375 -0.328125 -0.9375 -0.84375q-0.359375 -0.53125 -0.546875 -1.1875q-0.125 -0.46875 -0.25 -1.453125q-0.234375 -1.984375 -0.5625 -2.921875q-0.34375 -0.015625 -0.421875 -0.015625q-1.0 0 -1.421875 0.46875q-0.546875 0.625 -0.546875 1.875q0 1.15625 0.40625 1.703125q0.40625 0.546875 1.421875 0.8125l-0.21875 1.609375q-1.015625 -0.21875 -1.640625 -0.71875q-0.640625 -0.5 -0.984375 -1.453125q-0.34375 -0.953125 -0.34375 -2.1875q0 -1.25 0.296875 -2.015625q0.28125 -0.78125 0.734375 -1.140625q0.4375 -0.375 1.109375 -0.515625q0.421875 -0.078125 1.515625 -0.078125l2.1875 0q2.28125 0 2.890625 -0.109375q0.59375 -0.109375 1.15625 -0.40625l0 1.703125q-0.515625 0.265625 -1.1875 0.328125zm-3.671875 0.140625q0.375 0.890625 0.625 2.671875q0.140625 1.015625 0.328125 1.4375q0.1875 0.421875 0.53125 0.65625q0.34375 0.21875 0.78125 0.21875q0.65625 0 1.09375 -0.5q0.4375 -0.5 0.4375 -1.453125q0 -0.9375 -0.40625 -1.671875q-0.421875 -0.75 -1.140625 -1.09375q-0.5625 -0.265625 -1.640625 -0.265625l-0.609375 0zm8.578125 -4.125717l-1.53125 0.1875q0.140625 -0.546875 0.140625 -0.9375q0 -0.546875 -0.1875 -0.875q-0.171875 -0.328125 -0.5 -0.546875q-0.25 -0.15625 -1.21875 -0.5q-0.140625 -0.046875 -0.40625 -0.140625l-9.6875 3.671875l0 -1.765625l5.59375 -2.015625q1.078125 -0.390625 2.25 -0.703125q-1.125 -0.28125 -2.203125 -0.671875l-5.640625 -2.078125l0 -1.640625l9.828125 3.6875q1.609375 0.59375 2.203125 0.921875q0.8125 0.4375 1.1875 1.0q0.375 0.5625 0.375 1.34375q0 0.484375 -0.203125 1.0625zm-6.828125 -16.03125l0.203125 -1.6875q1.484375 0.40625 2.3125 1.484375q0.8125 1.078125 0.8125 2.765625q0 2.125 -1.296875 3.375q-1.3125 1.234375 -3.671875 1.234375q-2.453125 0 -3.796875 -1.25q-1.34375 -1.265625 -1.34375 -3.265625q0 -1.9375 1.328125 -3.15625q1.3125 -1.234375 3.703125 -1.234375q0.15625 0 0.4375 0l0 7.21875q1.59375 -0.09375 2.453125 -0.90625q0.84375 -0.8125 0.84375 -2.015625q0 -0.90625 -0.46875 -1.546875q-0.484375 -0.640625 -1.515625 -1.015625zm-2.65625 5.390625l0 -5.40625q-1.21875 0.109375 -1.828125 0.625q-0.953125 0.78125 -0.953125 2.03125q0 1.125 0.765625 1.90625q0.75 0.765625 2.015625 0.84375zm5.765625 -9.125717l-9.671875 0l0 -1.46875l1.46875 0q-1.03125 -0.5625 -1.359375 -1.03125q-0.328125 -0.484375 -0.328125 -1.0625q0 -0.828125 0.53125 -1.6875l1.515625 0.5625q-0.359375 0.609375 -0.359375 1.203125q0 0.546875 0.328125 0.96875q0.328125 0.421875 0.890625 0.609375q0.875 0.28125 1.921875 0.28125l5.0625 0l0 1.625zm0 -11.947052l0 1.640625l-10.453125 0q0.5625 0.59375 1.140625 1.5625q0.5625 0.953125 0.84375 1.71875l-1.59375 0q-0.640625 -1.375 -1.5625 -2.40625q-0.921875 -1.03125 -1.78125 -1.453125l0 -1.0625l13.40625 0z" fill-rule="nonzero"/></g><g filter="url(#shadowFilter-gc692dc1958_0_24.5)"><use xlink:href="#gc692dc1958_0_24.5" transform="matrix(1.0 0.0 0.0 1.0 0.0 2.0)"/></g><defs><filter id="shadowFilter-gc692dc1958_0_24.5" filterUnits="userSpaceOnUse"><feGaussianBlur in="SourceAlpha" stdDeviation="2.0" result="blur"/><feComponentTransfer in="blur" color-interpolation-filters="sRGB"><feFuncR type="linear" slope="0" intercept="0.0"/><feFuncG type="linear" slope="0" intercept="0.0"/><feFuncB type="linear" slope="0" intercept="0.0"/><feFuncA type="linear" slope="0.5" intercept="0"/></feComponentTransfer></filter></defs><g id="gc692dc1958_0_24.5"><path fill="#d9d9d9" d="m126.44914 235.7979l0 -82.20473l16.18898 0l0 82.20473z" fill-rule="evenodd"/><path stroke="#595959" stroke-width="1.0" stroke-linejoin="round" stroke-linecap="butt" d="m126.44914 235.7979l0 -82.20473l16.18898 0l0 82.20473z" fill-rule="evenodd"/><path fill="#000000" d="m140.40363 223.87132l-8.296875 0l0 -1.25l1.15625 0q-0.609375 -0.390625 -0.96875 -1.03125q-0.375 -0.65625 -0.375 -1.484375q0 -0.921875 0.390625 -1.515625q0.375 -0.59375 1.0625 -0.828125q-1.453125 -0.984375 -1.453125 -2.5625q0 -1.234375 0.6875 -1.890625q0.671875 -0.671875 2.09375 -0.671875l5.703125 0l0 1.390625l-5.234375 0q-0.84375 0 -1.203125 0.140625q-0.375 0.140625 -0.59375 0.5q-0.234375 0.359375 -0.234375 0.84375q0 0.875 0.578125 1.453125q0.578125 0.578125 1.859375 0.578125l4.828125 0l0 1.40625l-5.390625 0q-0.9375 0 -1.40625 0.34375q-0.46875 0.34375 -0.46875 1.125q0 0.59375 0.3125 1.09375q0.3125 0.5 0.921875 0.734375q0.59375 0.21875 1.71875 0.21875l4.3125 0l0 1.40625zm-1.03125 -18.734375q0.671875 0.78125 0.953125 1.5q0.265625 0.71875 0.265625 1.546875q0 1.375 -0.671875 2.109375q-0.671875 0.734375 -1.703125 0.734375q-0.609375 0 -1.109375 -0.28125q-0.515625 -0.28125 -0.8125 -0.71875q-0.3125 -0.453125 -0.46875 -1.015625q-0.109375 -0.421875 -0.203125 -1.25q-0.203125 -1.703125 -0.484375 -2.515625q-0.296875 0 -0.375 0q-0.859375 0 -1.203125 0.390625q-0.484375 0.546875 -0.484375 1.609375q0 0.984375 0.359375 1.46875q0.34375 0.46875 1.21875 0.6875l-0.1875 1.375q-0.875 -0.1875 -1.421875 -0.609375q-0.546875 -0.4375 -0.828125 -1.25q-0.296875 -0.8125 -0.296875 -1.875q0 -1.0625 0.25 -1.71875q0.25 -0.671875 0.625 -0.984375q0.375 -0.3125 0.953125 -0.4375q0.359375 -0.078125 1.296875 -0.078125l1.875 0q1.96875 0 2.484375 -0.078125q0.515625 -0.09375 1.0 -0.359375l0 1.46875q-0.4375 0.21875 -1.03125 0.28125zm-3.140625 0.109375q0.3125 0.765625 0.53125 2.296875q0.125 0.875 0.28125 1.234375q0.15625 0.359375 0.46875 0.5625q0.296875 0.1875 0.65625 0.1875q0.5625 0 0.9375 -0.421875q0.375 -0.4375 0.375 -1.25q0 -0.8125 -0.34375 -1.4375q-0.359375 -0.640625 -0.984375 -0.9375q-0.46875 -0.234375 -1.40625 -0.234375l-0.515625 0zm4.171875 -2.6640625l-4.3125 -3.03125l-3.984375 2.8125l0 -1.765625l1.9375 -1.265625q0.5625 -0.359375 0.9375 -0.578125q-0.515625 -0.34375 -0.921875 -0.640625l-1.953125 -1.390625l0 -1.6875l3.90625 2.875l4.390625 -3.09375l0 1.734375l-2.578125 1.703125l-0.703125 0.453125l3.28125 2.171875l0 1.703125zm3.1875 -8.9375l-11.484375 0l0 -1.28125l1.078125 0q-0.640625 -0.453125 -0.953125 -1.015625q-0.3125 -0.578125 -0.3125 -1.390625q0 -1.0625 0.546875 -1.875q0.546875 -0.8125 1.546875 -1.21875q0.984375 -0.421875 2.171875 -0.421875q1.28125 0 2.296875 0.46875q1.015625 0.453125 1.5625 1.328125q0.546875 0.859375 0.546875 1.828125q0 0.703125 -0.296875 1.265625q-0.296875 0.546875 -0.75 0.90625l4.046875 0l0 1.40625zm-7.296875 -1.265625q1.609375 0 2.375 -0.640625q0.765625 -0.65625 0.765625 -1.578125q0 -0.9375 -0.796875 -1.609375q-0.796875 -0.671875 -2.453125 -0.671875q-1.59375 0 -2.375 0.65625q-0.796875 0.65625 -0.796875 1.5625q0 0.890625 0.84375 1.59375q0.84375 0.6875 2.4375 0.6875zm-0.046875 -7.1015625q-2.296875 0 -3.40625 -1.28125q-0.921875 -1.078125 -0.921875 -2.609375q0 -1.71875 1.125 -2.796875q1.109375 -1.09375 3.09375 -1.09375q1.59375 0 2.515625 0.484375q0.921875 0.484375 1.4375 1.40625q0.5 0.90625 0.5 2.0q0 1.734375 -1.109375 2.8125q-1.125 1.078125 -3.234375 1.078125zm0 -1.453125q1.59375 0 2.390625 -0.6875q0.796875 -0.703125 0.796875 -1.75q0 -1.046875 -0.796875 -1.734375q-0.796875 -0.703125 -2.4375 -0.703125q-1.53125 0 -2.328125 0.703125q-0.796875 0.6875 -0.796875 1.734375q0 1.046875 0.796875 1.75q0.78125 0.6875 2.375 0.6875zm0 -7.4453125q-2.296875 0 -3.40625 -1.28125q-0.921875 -1.078125 -0.921875 -2.609375q0 -1.71875 1.125 -2.796875q1.109375 -1.09375 3.09375 -1.09375q1.59375 0 2.515625 0.484375q0.921875 0.484375 1.4375 1.40625q0.5 0.90625 0.5 2.0q0 1.734375 -1.109375 2.8125q-1.125 1.078125 -3.234375 1.078125zm0 -1.453125q1.59375 0 2.390625 -0.6875q0.796875 -0.703125 0.796875 -1.75q0 -1.046875 -0.796875 -1.734375q-0.796875 -0.703125 -2.4375 -0.703125q-1.53125 0 -2.328125 0.703125q-0.796875 0.6875 -0.796875 1.734375q0 1.046875 0.796875 1.75q0.78125 0.6875 2.375 0.6875zm4.15625 -7.9453125l-11.453125 0l0 -1.40625l11.453125 0l0 1.40625z" fill-rule="nonzero"/></g><g filter="url(#shadowFilter-gc692dc1958_0_24.6)"><use xlink:href="#gc692dc1958_0_24.6" transform="matrix(1.0 0.0 0.0 1.0 0.0 2.0)"/></g><defs><filter id="shadowFilter-gc692dc1958_0_24.6" filterUnits="userSpaceOnUse"><feGaussianBlur in="SourceAlpha" stdDeviation="2.0" result="blur"/><feComponentTransfer in="blur" color-interpolation-filters="sRGB"><feFuncR type="linear" slope="0" intercept="0.0"/><feFuncG type="linear" slope="0" intercept="0.0"/><feFuncB type="linear" slope="0" intercept="0.0"/><feFuncA type="linear" slope="0.5" intercept="0"/></feComponentTransfer></filter></defs><g id="gc692dc1958_0_24.6"><path fill="#8e7cc3" d="m490.48428 482.39633l0 -82.55118l47.99997 0l0 82.55118z" fill-rule="evenodd"/><path stroke="#595959" stroke-width="1.0" stroke-linejoin="round" stroke-linecap="butt" d="m490.48428 482.39633l0 -82.55118l47.99997 0l0 82.55118z" fill-rule="evenodd"/><path fill="#000000" d="m518.2243 472.5682l-7.6250305 0l0 -2.625q0 -0.890625 0.109375 -1.359375q0.140625 -0.65625 0.546875 -1.109375q0.5 -0.609375 1.2969055 -0.90625q0.796875 -0.296875 1.8125 -0.296875q0.875 0 1.546875 0.203125q0.671875 0.203125 1.109375 0.515625q0.4375 0.3125 0.6875 0.703125q0.25 0.375 0.390625 0.90625q0.125 0.53125 0.125 1.21875l0 2.75zm-0.90625 -1.0l0 -1.625q0 -0.765625 -0.140625 -1.1875q-0.140625 -0.4375 -0.390625 -0.6875q-0.359375 -0.359375 -0.953125 -0.5625q-0.609375 -0.203125 -1.484375 -0.203125q-1.1875 0 -1.828125 0.40625q-0.6562805 0.390625 -0.8750305 0.953125q-0.15625 0.40625 -0.15625 1.296875l0 1.609375l5.8281555 0zm-1.859375 -6.2268677q-1.53125 0 -2.265625 -0.84375q-0.625 -0.71875 -0.625 -1.734375q0 -1.140625 0.75 -1.859375q0.75 -0.734375 2.0625 -0.734375q1.0625 0 1.6875 0.328125q0.609375 0.3125 0.953125 0.921875q0.328125 0.609375 0.328125 1.34375q0 1.15625 -0.734375 1.875q-0.75 0.703125 -2.15625 0.703125zm0 -0.953125q1.0625 0 1.59375 -0.46875q0.53125 -0.46875 0.53125 -1.15625q0 -0.703125 -0.53125 -1.15625q-0.53125 -0.46875 -1.625 -0.46875q-1.015625 0 -1.546875 0.46875q-0.53125 0.453125 -0.53125 1.15625q0 0.6875 0.53125 1.15625q0.515625 0.46875 1.578125 0.46875zm2.765625 -8.942108l-0.8125 0q0.9375 0.65625 0.9375 1.75q0 0.5 -0.1875 0.921875q-0.1875 0.421875 -0.46875 0.625q-0.28125 0.203125 -0.703125 0.296875q-0.265625 0.046875 -0.875 0.046875l-3.421875 0l0 -0.9375l3.0625 0q0.734375 0 1.0 -0.046875q0.359375 -0.09375 0.578125 -0.375q0.203125 -0.296875 0.203125 -0.703125q0 -0.421875 -0.203125 -0.796875q-0.21875 -0.375 -0.59375 -0.515625q-0.375 -0.15625 -1.078125 -0.15625l-2.96875 0l0 -0.9375l5.53125 0l0 0.828125zm0 -3.1608887l0 0.859375l-7.6250305 0l0 -0.9375l2.7187805 0q-0.75 -0.59375 -0.75 -1.5q0 -0.515625 0.21875 -0.96875q0.203125 -0.453125 0.578125 -0.75q0.359375 -0.296875 0.890625 -0.453125q0.53125 -0.171875 1.125 -0.171875q1.421875 0 2.203125 0.703125q0.765625 0.703125 0.765625 1.6875q0 0.96875 -0.8125 1.53125l0.6875 0zm-2.796875 0q0.984375 0 1.421875 -0.265625q0.734375 -0.4375 0.734375 -1.1875q0 -0.625 -0.53125 -1.0625q-0.546875 -0.453125 -1.59375 -0.453125q-1.078125 0 -1.59375 0.4375q-0.515625 0.421875 -0.515625 1.03125q0 0.609375 0.53125 1.0625q0.53125 0.4375 1.546875 0.4375zm2.796875 -5.051483l-7.6250305 0l0 -0.9375l7.6250305 0l0 0.9375zm-1.78125 -6.1643677l0.125 -0.96875q0.84375 0.234375 1.3125 0.859375q0.46875 0.609375 0.46875 1.578125q0 1.203125 -0.75 1.921875q-0.75 0.703125 -2.09375 0.703125q-1.390625 0 -2.15625 -0.71875q-0.78125 -0.71875 -0.78125 -1.859375q0 -1.109375 0.765625 -1.8125q0.75 -0.703125 2.125 -0.703125q0.078125 0 0.234375 0l0 4.125q0.921875 -0.046875 1.40625 -0.515625q0.484375 -0.46875 0.484375 -1.15625q0 -0.515625 -0.265625 -0.875q-0.28125 -0.359375 -0.875 -0.578125zm-1.515625 3.078125l0 -3.09375q-0.6875 0.0625 -1.046875 0.359375q-0.53125 0.453125 -0.53125 1.15625q0 0.640625 0.4375 1.09375q0.421875 0.4375 1.140625 0.484375zm0.625 -10.785858l0.25 -1.015625q1.25 0.328125 1.90625 1.15625q0.640625 0.8125 0.640625 2.015625q0 1.234375 -0.5 2.0q-0.5 0.765625 -1.453125 1.171875q-0.953125 0.40625 -2.046875 0.40625q-1.1875 0 -2.078125 -0.453125q-0.8906555 -0.453125 -1.3437805 -1.296875q-0.46875 -0.84375 -0.46875 -1.84375q0 -1.15625 0.59375 -1.9375q0.578125 -0.78125 1.6406555 -1.078125l0.234375 0.984375q-0.84375 0.265625 -1.2187805 0.78125q-0.375 0.5 -0.375 1.265625q0 0.875 0.421875 1.46875q0.42190552 0.59375 1.1406555 0.828125q0.703125 0.234375 1.453125 0.234375q0.96875 0 1.703125 -0.28125q0.71875 -0.28125 1.078125 -0.875q0.359375 -0.59375 0.359375 -1.296875q0 -0.84375 -0.484375 -1.4375q-0.5 -0.59375 -1.453125 -0.796875zm-0.09375 -1.7893677q-1.53125 0 -2.265625 -0.84375q-0.625 -0.71875 -0.625 -1.734375q0 -1.140625 0.75 -1.859375q0.75 -0.734375 2.0625 -0.734375q1.0625 0 1.6875 0.328125q0.609375 0.3125 0.953125 0.921875q0.328125 0.609375 0.328125 1.34375q0 1.15625 -0.734375 1.875q-0.75 0.703125 -2.15625 0.703125zm0 -0.953125q1.0625 0 1.59375 -0.46875q0.53125 -0.46875 0.53125 -1.15625q0 -0.703125 -0.53125 -1.15625q-0.53125 -0.46875 -1.625 -0.46875q-1.015625 0 -1.546875 0.46875q-0.53125 0.453125 -0.53125 1.15625q0 0.6875 0.53125 1.15625q0.515625 0.46875 1.578125 0.46875zm2.765625 -5.317108l-5.53125 0l0 -0.84375l0.796875 0q-0.921875 -0.609375 -0.921875 -1.75q0 -0.5 0.1875 -0.921875q0.171875 -0.421875 0.46875 -0.625q0.296875 -0.21875 0.6875 -0.296875q0.265625 -0.046875 0.921875 -0.046875l3.390625 0l0 0.9375l-3.359375 0q-0.578125 0 -0.859375 0.109375q-0.28125 0.109375 -0.453125 0.390625q-0.171875 0.265625 -0.171875 0.640625q0 0.59375 0.390625 1.03125q0.375 0.4375 1.4375 0.4375l3.015625 0l0 0.9375zm0 -7.4577637l-5.53125 2.09375l0 -0.984375l3.3125 -1.1875q0.53125 -0.1875 1.109375 -0.359375q-0.4375 -0.109375 -1.046875 -0.34375l-3.375 -1.21875l0 -0.96875l5.53125 2.09375l0 0.875z" fill-rule="nonzero"/></g><g filter="url(#shadowFilter-gc692dc1958_0_24.7)"><use xlink:href="#gc692dc1958_0_24.7" transform="matrix(1.0 0.0 0.0 1.0 0.0 2.0)"/></g><defs><filter id="shadowFilter-gc692dc1958_0_24.7" filterUnits="userSpaceOnUse"><feGaussianBlur in="SourceAlpha" stdDeviation="2.0" result="blur"/><feComponentTransfer in="blur" color-interpolation-filters="sRGB"><feFuncR type="linear" slope="0" intercept="0.0"/><feFuncG type="linear" slope="0" intercept="0.0"/><feFuncB type="linear" slope="0" intercept="0.0"/><feFuncA type="linear" slope="0.5" intercept="0"/></feComponentTransfer></filter></defs><g id="gc692dc1958_0_24.7"><path fill="#6fa8dc" d="m569.52136 400.2546l0 -82.55121l48.0 0l0 82.55121z" fill-rule="evenodd"/><path stroke="#595959" stroke-width="1.0" stroke-linejoin="round" stroke-linecap="butt" d="m569.52136 400.2546l0 -82.55121l48.0 0l0 82.55121z" fill-rule="evenodd"/><path fill="#000000" d="m598.6013 383.6461l-0.953125 0q1.125 0.71875 1.125 2.125q0 0.90625 -0.5 1.671875q-0.5 0.75 -1.390625 1.171875q-0.90625 0.421875 -2.078125 0.421875q-1.140625 0 -2.0625 -0.375q-0.921875 -0.390625 -1.40625 -1.140625q-0.5 -0.765625 -0.5 -1.703125q0 -0.6875 0.296875 -1.21875q0.28125 -0.53125 0.734375 -0.875l-3.75 0l0 -1.28125l10.484375 0l0 1.203125zm-3.796875 4.0625q1.46875 0 2.1875 -0.609375q0.71875 -0.625 0.71875 -1.453125q0 -0.84375 -0.6875 -1.4375q-0.6875 -0.59375 -2.109375 -0.59375q-1.5625 0 -2.28125 0.609375q-0.734375 0.59375 -0.734375 1.484375q0 0.84375 0.703125 1.421875q0.703125 0.578125 2.203125 0.578125zm1.34375 -12.494843l0.171875 -1.328125q1.171875 0.3125 1.8125 1.171875q0.640625 0.84375 0.640625 2.171875q0 1.671875 -1.015625 2.65625q-1.03125 0.96875 -2.890625 0.96875q-1.921875 0 -2.96875 -0.984375q-1.0625 -1.0 -1.0625 -2.578125q0 -1.515625 1.03125 -2.484375q1.03125 -0.96875 2.921875 -0.96875q0.109375 0 0.34375 0.015625l0 5.65625q1.25 -0.0625 1.921875 -0.703125q0.65625 -0.640625 0.65625 -1.59375q0 -0.703125 -0.359375 -1.203125q-0.375 -0.5 -1.203125 -0.796875zm-2.078125 4.234375l0 -4.25q-0.953125 0.09375 -1.4375 0.484375q-0.75 0.625 -0.75 1.609375q0 0.875 0.59375 1.484375q0.59375 0.609375 1.59375 0.671875zm1.75 -12.135498l0.15625 -1.265625q1.3125 0.203125 2.0625 1.0625q0.734375 0.84375 0.734375 2.09375q0 1.5625 -1.015625 2.515625q-1.03125 0.9375 -2.921875 0.9375q-1.234375 0 -2.15625 -0.40625q-0.921875 -0.40625 -1.375 -1.234375q-0.46875 -0.84375 -0.46875 -1.8125q0 -1.25 0.625 -2.03125q0.625 -0.78125 1.765625 -1.015625l0.203125 1.265625q-0.765625 0.171875 -1.15625 0.625q-0.390625 0.453125 -0.390625 1.09375q0 0.984375 0.703125 1.59375q0.703125 0.609375 2.203125 0.609375q1.53125 0 2.234375 -0.578125q0.6875 -0.59375 0.6875 -1.546875q0 -0.75 -0.453125 -1.265625q-0.46875 -0.515625 -1.4375 -0.640625zm-1.015625 -1.890625q-2.109375 0 -3.125 -1.171875q-0.84375 -0.984375 -0.84375 -2.390625q0 -1.578125 1.03125 -2.5625q1.015625 -1.0 2.828125 -1.0q1.46875 0 2.3125 0.4375q0.828125 0.4375 1.296875 1.28125q0.46875 0.84375 0.46875 1.84375q0 1.59375 -1.015625 2.578125q-1.03125 0.984375 -2.953125 0.984375zm0 -1.328125q1.453125 0 2.1875 -0.625q0.71875 -0.640625 0.71875 -1.609375q0 -0.96875 -0.71875 -1.59375q-0.734375 -0.640625 -2.234375 -0.640625q-1.40625 0 -2.125 0.640625q-0.734375 0.640625 -0.734375 1.59375q0 0.96875 0.71875 1.609375q0.71875 0.625 2.1875 0.625zm3.796875 -12.229218l-0.953125 0q1.125 0.71875 1.125 2.125q0 0.90625 -0.5 1.671875q-0.5 0.75 -1.390625 1.171875q-0.90625 0.421875 -2.078125 0.421875q-1.140625 0 -2.0625 -0.375q-0.921875 -0.390625 -1.40625 -1.140625q-0.5 -0.765625 -0.5 -1.703125q0 -0.6875 0.296875 -1.21875q0.28125 -0.53125 0.734375 -0.875l-3.75 0l0 -1.28125l10.484375 0l0 1.203125zm-3.796875 4.0625q1.46875 0 2.1875 -0.609375q0.71875 -0.625 0.71875 -1.453125q0 -0.84375 -0.6875 -1.4375q-0.6875 -0.59375 -2.109375 -0.59375q-1.5625 0 -2.28125 0.609375q-0.734375 0.59375 -0.734375 1.484375q0 0.84375 0.703125 1.421875q0.703125 0.578125 2.203125 0.578125zm1.34375 -12.494873l0.171875 -1.328125q1.171875 0.3125 1.8125 1.171875q0.640625 0.84375 0.640625 2.171875q0 1.671875 -1.015625 2.65625q-1.03125 0.96875 -2.890625 0.96875q-1.921875 0 -2.96875 -0.984375q-1.0625 -1.0 -1.0625 -2.578125q0 -1.515625 1.03125 -2.484375q1.03125 -0.96875 2.921875 -0.96875q0.109375 0 0.34375 0.015625l0 5.65625q1.25 -0.0625 1.921875 -0.703125q0.65625 -0.640625 0.65625 -1.59375q0 -0.703125 -0.359375 -1.203125q-0.375 -0.5 -1.203125 -0.796875zm-2.078125 4.234375l0 -4.25q-0.953125 0.09375 -1.4375 0.484375q-0.75 0.625 -0.75 1.609375q0 0.875 0.59375 1.484375q0.59375 0.609375 1.59375 0.671875zm4.53125 -7.1667175l-7.59375 0l0 -1.15625l1.140625 0q-0.796875 -0.453125 -1.046875 -0.828125q-0.265625 -0.375 -0.265625 -0.8125q0 -0.65625 0.40625 -1.328125l1.203125 0.4375q-0.28125 0.46875 -0.28125 0.953125q0 0.421875 0.25 0.765625q0.25 0.328125 0.703125 0.46875q0.6875 0.21875 1.5 0.21875l3.984375 0l0 1.28125zm-5.171875 -4.5368958q-1.859375 0 -2.984375 -0.375q-1.140625 -0.390625 -1.75 -1.140625q-0.625 -0.765625 -0.625 -1.90625q0 -0.84375 0.34375 -1.46875q0.328125 -0.640625 0.96875 -1.0625q0.640625 -0.421875 1.5625 -0.65625q0.921875 -0.234375 2.484375 -0.234375q1.84375 0 2.984375 0.390625q1.125 0.375 1.75 1.125q0.609375 0.75 0.609375 1.90625q0 1.515625 -1.078125 2.390625q-1.3125 1.03125 -4.265625 1.03125zm0 -1.328125q2.578125 0 3.4375 -0.59375q0.859375 -0.609375 0.859375 -1.5q0 -0.890625 -0.859375 -1.484375q-0.859375 -0.609375 -3.4375 -0.609375q-2.59375 0 -3.4375 0.609375q-0.859375 0.59375 -0.859375 1.5q0 0.890625 0.75 1.421875q0.96875 0.65625 3.546875 0.65625z" fill-rule="nonzero"/></g><g filter="url(#shadowFilter-gc692dc1958_0_24.8)"><use xlink:href="#gc692dc1958_0_24.8" transform="matrix(1.0 0.0 0.0 1.0 0.0 2.0)"/></g><defs><filter id="shadowFilter-gc692dc1958_0_24.8" filterUnits="userSpaceOnUse"><feGaussianBlur in="SourceAlpha" stdDeviation="2.0" result="blur"/><feComponentTransfer in="blur" color-interpolation-filters="sRGB"><feFuncR type="linear" slope="0" intercept="0.0"/><feFuncG type="linear" slope="0" intercept="0.0"/><feFuncB type="linear" slope="0" intercept="0.0"/><feFuncA type="linear" slope="0.5" intercept="0"/></feComponentTransfer></filter></defs><g id="gc692dc1958_0_24.8"><path fill="#d9ead3" d="m236.05025 318.11285l0 -82.55118l48.000015 0l0 82.55118z" fill-rule="evenodd"/><path stroke="#595959" stroke-width="1.0" stroke-linejoin="round" stroke-linecap="butt" d="m236.05025 318.11285l0 -82.55118l48.000015 0l0 82.55118z" fill-rule="evenodd"/><path fill="#000000" d="m266.97025 307.92535l-13.359375 0l0 -1.640625l13.359375 0l0 1.640625zm-1.1875 -10.504181q0.765625 0.921875 1.09375 1.765625q0.3125 0.828125 0.3125 1.796875q0 1.59375 -0.78125 2.453125q-0.78125 0.859375 -1.984375 0.859375q-0.71875 0 -1.296875 -0.328125q-0.59375 -0.328125 -0.9375 -0.84375q-0.359375 -0.53125 -0.546875 -1.1875q-0.125 -0.46875 -0.25 -1.453125q-0.234375 -1.984375 -0.5625 -2.921875q-0.34375 -0.015625 -0.421875 -0.015625q-1.0 0 -1.421875 0.46875q-0.546875 0.625 -0.546875 1.875q0 1.15625 0.40625 1.703125q0.40625 0.546875 1.421875 0.8125l-0.21875 1.609375q-1.015625 -0.21875 -1.640625 -0.71875q-0.640625 -0.5 -0.984375 -1.453125q-0.34375 -0.953125 -0.34375 -2.1875q0 -1.25 0.296875 -2.015625q0.28125 -0.78125 0.734375 -1.140625q0.4375 -0.375 1.109375 -0.515625q0.421875 -0.078125 1.515625 -0.078125l2.1875 0q2.28125 0 2.890625 -0.109375q0.59375 -0.109375 1.15625 -0.40625l0 1.703125q-0.515625 0.265625 -1.1875 0.328125zm-3.671875 0.140625q0.375 0.890625 0.625 2.671875q0.140625 1.015625 0.328125 1.4375q0.1875 0.421875 0.53125 0.65625q0.34375 0.21875 0.78125 0.21875q0.65625 0 1.09375 -0.5q0.4375 -0.5 0.4375 -1.453125q0 -0.9375 -0.40625 -1.671875q-0.421875 -0.75 -1.140625 -1.09375q-0.5625 -0.265625 -1.640625 -0.265625l-0.609375 0zm8.578125 -4.1257324l-1.53125 0.1875q0.140625 -0.546875 0.140625 -0.9375q0 -0.546875 -0.1875 -0.875q-0.171875 -0.328125 -0.5 -0.546875q-0.25 -0.15625 -1.21875 -0.5q-0.140625 -0.046875 -0.40625 -0.140625l-9.6875 3.671875l0 -1.765625l5.59375 -2.015625q1.078125 -0.390625 2.25 -0.703125q-1.125 -0.28125 -2.203125 -0.671875l-5.640625 -2.078125l0 -1.640625l9.828125 3.6875q1.609375 0.59375 2.203125 0.921875q0.8125 0.4375 1.1875 1.0q0.375 0.5625 0.375 1.34375q0 0.484375 -0.203125 1.0625zm-6.828125 -16.03125l0.203125 -1.6875q1.484375 0.40625 2.3125 1.484375q0.8125 1.078125 0.8125 2.765625q0 2.125 -1.296875 3.375q-1.3125 1.234375 -3.671875 1.234375q-2.453125 0 -3.796875 -1.25q-1.34375 -1.265625 -1.34375 -3.265625q0 -1.9375 1.328125 -3.15625q1.3125 -1.234375 3.703125 -1.234375q0.15625 0 0.4375 0l0 7.21875q1.59375 -0.09375 2.453125 -0.90625q0.84375 -0.8125 0.84375 -2.015625q0 -0.90625 -0.46875 -1.546875q-0.484375 -0.640625 -1.515625 -1.015625zm-2.65625 5.390625l0 -5.40625q-1.21875 0.109375 -1.828125 0.625q-0.953125 0.78125 -0.953125 2.03125q0 1.125 0.765625 1.90625q0.75 0.765625 2.015625 0.84375zm5.765625 -9.125702l-9.671875 0l0 -1.46875l1.46875 0q-1.03125 -0.5625 -1.359375 -1.03125q-0.328125 -0.484375 -0.328125 -1.0625q0 -0.828125 0.53125 -1.6875l1.515625 0.5625q-0.359375 0.609375 -0.359375 1.203125q0 0.546875 0.328125 0.96875q0.328125 0.421875 0.890625 0.609375q0.875 0.28125 1.921875 0.28125l5.0625 0l0 1.625zm-1.578125 -14.384552l1.578125 0l0 8.828125q-0.59375 0.015625 -1.140625 -0.1875q-0.90625 -0.34375 -1.78125 -1.078125q-0.875 -0.75 -2.015625 -2.15625q-1.78125 -2.171875 -2.828125 -2.9375q-1.046875 -0.765625 -1.96875 -0.765625q-0.984375 0 -1.640625 0.703125q-0.671875 0.6875 -0.671875 1.8125q0 1.1875 0.71875 1.90625q0.703125 0.703125 1.953125 0.703125l-0.171875 1.6875q-1.890625 -0.171875 -2.875 -1.296875q-0.984375 -1.140625 -0.984375 -3.03125q0 -1.921875 1.0625 -3.046875q1.0625 -1.125 2.640625 -1.125q0.796875 0 1.578125 0.328125q0.78125 0.328125 1.640625 1.09375q0.84375 0.75 2.34375 2.53125q1.234375 1.46875 1.6875 1.890625q0.4375 0.421875 0.875 0.6875l0 -6.546875z" fill-rule="nonzero"/></g><g filter="url(#shadowFilter-gc692dc1958_0_24.9)"><use xlink:href="#gc692dc1958_0_24.9" transform="matrix(1.0 0.0 0.0 1.0 0.0 2.0)"/></g><defs><filter id="shadowFilter-gc692dc1958_0_24.9" filterUnits="userSpaceOnUse"><feGaussianBlur in="SourceAlpha" stdDeviation="2.0" result="blur"/><feComponentTransfer in="blur" color-interpolation-filters="sRGB"><feFuncR type="linear" slope="0" intercept="0.0"/><feFuncG type="linear" slope="0" intercept="0.0"/><feFuncB type="linear" slope="0" intercept="0.0"/><feFuncA type="linear" slope="0.5" intercept="0"/></feComponentTransfer></filter></defs><g id="gc692dc1958_0_24.9"><path fill="#fff2cc" d="m318.55188 400.2546l0 -82.55121l48.0 0l0 82.55121z" fill-rule="evenodd"/><path stroke="#595959" stroke-width="1.0" stroke-linejoin="round" stroke-linecap="butt" d="m318.55188 400.2546l0 -82.55121l48.0 0l0 82.55121z" fill-rule="evenodd"/><path fill="#000000" d="m349.4719 390.0671l-13.359375 0l0 -1.640625l13.359375 0l0 1.640625zm-1.1875 -10.504211q0.765625 0.921875 1.09375 1.765625q0.3125 0.828125 0.3125 1.796875q0 1.59375 -0.78125 2.453125q-0.78125 0.859375 -1.984375 0.859375q-0.71875 0 -1.296875 -0.328125q-0.59375 -0.328125 -0.9375 -0.84375q-0.359375 -0.53125 -0.546875 -1.1875q-0.125 -0.46875 -0.25 -1.453125q-0.234375 -1.984375 -0.5625 -2.921875q-0.34375 -0.015625 -0.421875 -0.015625q-1.0 0 -1.421875 0.46875q-0.546875 0.625 -0.546875 1.875q0 1.15625 0.40625 1.703125q0.40625 0.546875 1.421875 0.8125l-0.21875 1.609375q-1.015625 -0.21875 -1.640625 -0.71875q-0.640625 -0.5 -0.984375 -1.453125q-0.34375 -0.953125 -0.34375 -2.1875q0 -1.25 0.296875 -2.015625q0.28125 -0.78125 0.734375 -1.140625q0.4375 -0.375 1.109375 -0.515625q0.421875 -0.078125 1.515625 -0.078125l2.1875 0q2.28125 0 2.890625 -0.109375q0.59375 -0.109375 1.15625 -0.40625l0 1.703125q-0.515625 0.265625 -1.1875 0.328125zm-3.671875 0.140625q0.375 0.890625 0.625 2.671875q0.140625 1.015625 0.328125 1.4375q0.1875 0.421875 0.53125 0.65625q0.34375 0.21875 0.78125 0.21875q0.65625 0 1.09375 -0.5q0.4375 -0.5 0.4375 -1.453125q0 -0.9375 -0.40625 -1.671875q-0.421875 -0.75 -1.140625 -1.09375q-0.5625 -0.265625 -1.640625 -0.265625l-0.609375 0zm8.578125 -4.125702l-1.53125 0.1875q0.140625 -0.546875 0.140625 -0.9375q0 -0.546875 -0.1875 -0.875q-0.171875 -0.328125 -0.5 -0.546875q-0.25 -0.15625 -1.21875 -0.5q-0.140625 -0.046875 -0.40625 -0.140625l-9.6875 3.671875l0 -1.765625l5.59375 -2.015625q1.078125 -0.390625 2.25 -0.703125q-1.125 -0.28125 -2.203125 -0.671875l-5.640625 -2.078125l0 -1.640625l9.828125 3.6875q1.609375 0.59375 2.203125 0.921875q0.8125 0.4375 1.1875 1.0q0.375 0.5625 0.375 1.34375q0 0.484375 -0.203125 1.0625zm-6.828125 -16.03125l0.203125 -1.6875q1.484375 0.40625 2.3125 1.484375q0.8125 1.078125 0.8125 2.765625q0 2.125 -1.296875 3.375q-1.3125 1.234375 -3.671875 1.234375q-2.453125 0 -3.796875 -1.25q-1.34375 -1.265625 -1.34375 -3.265625q0 -1.9375 1.328125 -3.15625q1.3125 -1.234375 3.703125 -1.234375q0.15625 0 0.4375 0l0 7.21875q1.59375 -0.09375 2.453125 -0.90625q0.84375 -0.8125 0.84375 -2.015625q0 -0.90625 -0.46875 -1.546875q-0.484375 -0.640625 -1.515625 -1.015625zm-2.65625 5.390625l0 -5.40625q-1.21875 0.109375 -1.828125 0.625q-0.953125 0.78125 -0.953125 2.03125q0 1.125 0.765625 1.90625q0.75 0.765625 2.015625 0.84375zm5.765625 -9.125732l-9.671875 0l0 -1.46875l1.46875 0q-1.03125 -0.5625 -1.359375 -1.03125q-0.328125 -0.484375 -0.328125 -1.0625q0 -0.828125 0.53125 -1.6875l1.515625 0.5625q-0.359375 0.609375 -0.359375 1.203125q0 0.546875 0.328125 0.96875q0.328125 0.421875 0.890625 0.609375q0.875 0.28125 1.921875 0.28125l5.0625 0l0 1.625zm-3.53125 -5.775177l-0.21875 -1.640625q1.40625 -0.28125 2.015625 -0.953125q0.609375 -0.6875 0.609375 -1.65625q0 -1.15625 -0.796875 -1.953125q-0.796875 -0.796875 -1.984375 -0.796875q-1.125 0 -1.859375 0.734375q-0.734375 0.734375 -0.734375 1.875q0 0.46875 0.171875 1.15625l-1.4375 -0.1875q0.015625 -0.15625 0.015625 -0.265625q0 -1.046875 -0.546875 -1.875q-0.546875 -0.84375 -1.671875 -0.84375q-0.90625 0 -1.5 0.609375q-0.59375 0.609375 -0.59375 1.578125q0 0.953125 0.609375 1.59375q0.59375 0.640625 1.796875 0.8125l-0.296875 1.640625q-1.640625 -0.296875 -2.546875 -1.359375q-0.90625 -1.0625 -0.90625 -2.65625q0 -1.09375 0.46875 -2.0q0.46875 -0.921875 1.28125 -1.40625q0.8125 -0.5 1.71875 -0.5q0.859375 0 1.578125 0.46875q0.703125 0.46875 1.125 1.375q0.28125 -1.1875 1.140625 -1.84375q0.859375 -0.65625 2.15625 -0.65625q1.734375 0 2.953125 1.28125q1.21875 1.265625 1.21875 3.21875q0 1.765625 -1.046875 2.921875q-1.046875 1.15625 -2.71875 1.328125z" fill-rule="nonzero"/></g><g filter="url(#shadowFilter-gc692dc1958_0_24.10)"><use xlink:href="#gc692dc1958_0_24.10" transform="matrix(1.0 0.0 0.0 1.0 0.0 2.0)"/></g><defs><filter id="shadowFilter-gc692dc1958_0_24.10" filterUnits="userSpaceOnUse"><feGaussianBlur in="SourceAlpha" stdDeviation="2.0" result="blur"/><feComponentTransfer in="blur" color-interpolation-filters="sRGB"><feFuncR type="linear" slope="0" intercept="0.0"/><feFuncG type="linear" slope="0" intercept="0.0"/><feFuncB type="linear" slope="0" intercept="0.0"/><feFuncA type="linear" slope="0.5" intercept="0"/></feComponentTransfer></filter></defs><g id="gc692dc1958_0_24.10"><path fill="#f4cccc" d="m401.05353 482.39633l0 -82.55118l48.0 0l0 82.55118z" fill-rule="evenodd"/><path stroke="#595959" stroke-width="1.0" stroke-linejoin="round" stroke-linecap="butt" d="m401.05353 482.39633l0 -82.55118l48.0 0l0 82.55118z" fill-rule="evenodd"/><path fill="#000000" d="m431.9735 472.20883l-13.359375 0l0 -1.640625l13.359375 0l0 1.640625zm-1.1875 -10.504211q0.765625 0.921875 1.09375 1.765625q0.3125 0.828125 0.3125 1.796875q0 1.59375 -0.78125 2.453125q-0.78125 0.859375 -1.984375 0.859375q-0.71875 0 -1.296875 -0.328125q-0.59375 -0.328125 -0.9375 -0.84375q-0.359375 -0.53125 -0.546875 -1.1875q-0.125 -0.46875 -0.25 -1.453125q-0.234375 -1.984375 -0.5625 -2.921875q-0.34375 -0.015625 -0.421875 -0.015625q-1.0 0 -1.421875 0.46875q-0.546875 0.625 -0.546875 1.875q0 1.15625 0.40625 1.703125q0.40625 0.546875 1.421875 0.8125l-0.21875 1.609375q-1.015625 -0.21875 -1.640625 -0.71875q-0.640625 -0.5 -0.984375 -1.453125q-0.34375 -0.953125 -0.34375 -2.1875q0 -1.25 0.296875 -2.015625q0.28125 -0.78125 0.734375 -1.140625q0.4375 -0.375 1.109375 -0.515625q0.421875 -0.078125 1.515625 -0.078125l2.1875 0q2.28125 0 2.890625 -0.109375q0.59375 -0.109375 1.15625 -0.40625l0 1.703125q-0.515625 0.265625 -1.1875 0.328125zm-3.671875 0.140625q0.375 0.890625 0.625 2.671875q0.140625 1.015625 0.328125 1.4375q0.1875 0.421875 0.53125 0.65625q0.34375 0.21875 0.78125 0.21875q0.65625 0 1.09375 -0.5q0.4375 -0.5 0.4375 -1.453125q0 -0.9375 -0.40625 -1.671875q-0.421875 -0.75 -1.140625 -1.09375q-0.5625 -0.265625 -1.640625 -0.265625l-0.609375 0zm8.578125 -4.125702l-1.53125 0.1875q0.140625 -0.546875 0.140625 -0.9375q0 -0.546875 -0.1875 -0.875q-0.171875 -0.328125 -0.5 -0.546875q-0.25 -0.15625 -1.21875 -0.5q-0.140625 -0.046875 -0.40625 -0.140625l-9.6875 3.671875l0 -1.765625l5.59375 -2.015625q1.078125 -0.390625 2.25 -0.703125q-1.125 -0.28125 -2.203125 -0.671875l-5.640625 -2.078125l0 -1.640625l9.828125 3.6875q1.609375 0.59375 2.203125 0.921875q0.8125 0.4375 1.1875 1.0q0.375 0.5625 0.375 1.34375q0 0.484375 -0.203125 1.0625zm-6.828125 -16.03125l0.203125 -1.6875q1.484375 0.40625 2.3125 1.484375q0.8125 1.078125 0.8125 2.765625q0 2.125 -1.296875 3.375q-1.3125 1.234375 -3.671875 1.234375q-2.453125 0 -3.796875 -1.25q-1.34375 -1.265625 -1.34375 -3.265625q0 -1.9375 1.328125 -3.15625q1.3125 -1.234375 3.703125 -1.234375q0.15625 0 0.4375 0l0 7.21875q1.59375 -0.09375 2.453125 -0.90625q0.84375 -0.8125 0.84375 -2.015625q0 -0.90625 -0.46875 -1.546875q-0.484375 -0.640625 -1.515625 -1.015625zm-2.65625 5.390625l0 -5.40625q-1.21875 0.109375 -1.828125 0.625q-0.953125 0.78125 -0.953125 2.03125q0 1.125 0.765625 1.90625q0.75 0.765625 2.015625 0.84375zm5.765625 -9.125732l-9.671875 0l0 -1.46875l1.46875 0q-1.03125 -0.5625 -1.359375 -1.03125q-0.328125 -0.484375 -0.328125 -1.0625q0 -0.828125 0.53125 -1.6875l1.515625 0.5625q-0.359375 0.609375 -0.359375 1.203125q0 0.546875 0.328125 0.96875q0.328125 0.421875 0.890625 0.609375q0.875 0.28125 1.921875 0.28125l5.0625 0l0 1.625zm0 -11.025177l-3.203125 0l0 5.796875l-1.5 0l-8.65625 -6.09375l0 -1.34375l8.65625 0l0 -1.796875l1.5 0l0 1.796875l3.203125 0l0 1.640625zm-4.703125 0l-6.015625 0l6.015625 4.1875l0 -4.1875z" fill-rule="nonzero"/></g><g filter="url(#shadowFilter-gc692dc1958_0_24.11)"><use xlink:href="#gc692dc1958_0_24.11" transform="matrix(1.0 0.0 0.0 1.0 0.0 2.0)"/></g><defs><filter id="shadowFilter-gc692dc1958_0_24.11" filterUnits="userSpaceOnUse"><feGaussianBlur in="SourceAlpha" stdDeviation="2.0" result="blur"/><feComponentTransfer in="blur" color-interpolation-filters="sRGB"><feFuncR type="linear" slope="0" intercept="0.0"/><feFuncG type="linear" slope="0" intercept="0.0"/><feFuncB type="linear" slope="0" intercept="0.0"/><feFuncA type="linear" slope="0.5" intercept="0"/></feComponentTransfer></filter></defs><g id="gc692dc1958_0_24.11"><path fill="#d9d9d9" d="m875.05774 129.62466l0 -82.20471l16.188965 0l0 82.20471z" fill-rule="evenodd"/><path stroke="#595959" stroke-width="1.0" stroke-linejoin="round" stroke-linecap="butt" d="m875.05774 129.62466l0 -82.20471l16.188965 0l0 82.20471z" fill-rule="evenodd"/><path fill="#000000" d="m889.0122 108.81528l-8.296875 0l0 -1.265625l1.25 0q-0.875 -0.484375 -1.15625 -0.890625q-0.28125 -0.40625 -0.28125 -0.90625q0 -0.703125 0.453125 -1.4375l1.296875 0.484375q-0.296875 0.515625 -0.296875 1.03125q0 0.453125 0.28125 0.828125q0.265625 0.359375 0.765625 0.515625q0.75 0.234375 1.640625 0.234375l4.34375 0l0 1.40625zm-2.671875 -11.015625l0.171875 -1.453125q1.28125 0.34375 1.984375 1.28125q0.703125 0.921875 0.703125 2.359375q0 1.828125 -1.125 2.890625q-1.125 1.0625 -3.140625 1.0625q-2.09375 0 -3.25 -1.078125q-1.15625 -1.078125 -1.15625 -2.796875q0 -1.65625 1.140625 -2.703125q1.125 -1.0625 3.171875 -1.0625q0.125 0 0.375 0l0 6.1875q1.375 -0.078125 2.109375 -0.765625q0.71875 -0.703125 0.71875 -1.734375q0 -0.78125 -0.40625 -1.328125q-0.40625 -0.546875 -1.296875 -0.859375zm-2.28125 4.609375l0 -4.625q-1.046875 0.09375 -1.5625 0.53125q-0.8125 0.671875 -0.8125 1.734375q0 0.96875 0.65625 1.640625q0.640625 0.65625 1.71875 0.71875zm2.46875 -7.2734375l-0.21875 -1.390625q0.84375 -0.109375 1.296875 -0.640625q0.4375 -0.546875 0.4375 -1.5q0 -0.96875 -0.390625 -1.4375q-0.40625 -0.46875 -0.9375 -0.46875q-0.46875 0 -0.75 0.40625q-0.1875 0.296875 -0.46875 1.4375q-0.390625 1.546875 -0.671875 2.15625q-0.296875 0.59375 -0.796875 0.90625q-0.5 0.296875 -1.109375 0.296875q-0.5625 0 -1.03125 -0.25q-0.46875 -0.25 -0.78125 -0.6875q-0.25 -0.328125 -0.40625 -0.890625q-0.171875 -0.578125 -0.171875 -1.21875q0 -0.984375 0.28125 -1.71875q0.28125 -0.734375 0.765625 -1.078125q0.46875 -0.359375 1.28125 -0.5l0.1875 1.375q-0.640625 0.09375 -1.0 0.546875q-0.359375 0.453125 -0.359375 1.265625q0 0.96875 0.328125 1.390625q0.3125 0.40625 0.734375 0.40625q0.28125 0 0.5 -0.171875q0.21875 -0.171875 0.375 -0.53125q0.078125 -0.21875 0.359375 -1.25q0.390625 -1.484375 0.65625 -2.078125q0.25 -0.59375 0.734375 -0.921875q0.484375 -0.34375 1.203125 -0.34375q0.703125 0 1.328125 0.421875q0.609375 0.40625 0.953125 1.1875q0.34375 0.765625 0.34375 1.734375q0 1.625 -0.671875 2.46875q-0.671875 0.84375 -2.0 1.078125zm-7.359375 -8.5625l-1.609375 0l0 -1.40625l1.609375 0l0 1.40625zm9.84375 0l-8.296875 0l0 -1.40625l8.296875 0l0 1.40625zm0 -2.8046875l-1.140625 0l-6.0625 -5.28125q0.046875 0.890625 0.046875 1.578125l0 3.390625l-1.140625 0l0 -6.78125l0.921875 0l5.265625 4.484375l0.96875 0.875q-0.078125 -0.953125 -0.078125 -1.78125l0 -3.828125l1.21875 0l0 7.34375zm-2.671875 -14.421875l0.171875 -1.453125q1.28125 0.34375 1.984375 1.28125q0.703125 0.921875 0.703125 2.359375q0 1.828125 -1.125 2.890625q-1.125 1.0625 -3.140625 1.0625q-2.09375 0 -3.25 -1.078125q-1.15625 -1.078125 -1.15625 -2.796875q0 -1.65625 1.140625 -2.703125q1.125 -1.0625 3.171875 -1.0625q0.125 0 0.375 0l0 6.1875q1.375 -0.078125 2.109375 -0.765625q0.71875 -0.703125 0.71875 -1.734375q0 -0.78125 -0.40625 -1.328125q-0.40625 -0.546875 -1.296875 -0.859375zm-2.28125 4.609375l0 -4.625q-1.046875 0.09375 -1.5625 0.53125q-0.8125 0.671875 -0.8125 1.734375q0 0.96875 0.65625 1.640625q0.640625 0.65625 1.71875 0.71875z" fill-rule="nonzero"/></g><g filter="url(#shadowFilter-gc692dc1958_0_24.12)"><use xlink:href="#gc692dc1958_0_24.12" transform="matrix(1.0 0.0 0.0 1.0 0.0 2.0)"/></g><defs><filter id="shadowFilter-gc692dc1958_0_24.12" filterUnits="userSpaceOnUse"><feGaussianBlur in="SourceAlpha" stdDeviation="2.0" result="blur"/><feComponentTransfer in="blur" color-interpolation-filters="sRGB"><feFuncR type="linear" slope="0" intercept="0.0"/><feFuncG type="linear" slope="0" intercept="0.0"/><feFuncB type="linear" slope="0" intercept="0.0"/><feFuncA type="linear" slope="0.5" intercept="0"/></feComponentTransfer></filter></defs><g id="gc692dc1958_0_24.12"><path fill="#d9d9d9" d="m904.7428 129.62466l0 -82.20471l16.188965 0l0 82.20471z" fill-rule="evenodd"/><path stroke="#595959" stroke-width="1.0" stroke-linejoin="round" stroke-linecap="butt" d="m904.7428 129.62466l0 -82.20471l16.188965 0l0 82.20471z" fill-rule="evenodd"/><path fill="#000000" d="m918.69727 101.807465l-7.203125 0l0 1.234375l-1.09375 0l0 -1.234375l-0.890625 0q-0.828125 0 -1.234375 -0.15625q-0.546875 -0.203125 -0.890625 -0.703125q-0.34375 -0.515625 -0.34375 -1.4375q0 -0.59375 0.140625 -1.3125l1.234375 0.203125q-0.078125 0.4375 -0.078125 0.828125q0 0.640625 0.28125 0.90625q0.265625 0.265625 1.015625 0.265625l0.765625 0l0 -1.609375l1.09375 0l0 1.609375l7.203125 0l0 1.40625zm-9.84375 -4.1171875l-1.609375 0l0 -1.40625l1.609375 0l0 1.40625zm9.84375 0l-8.296875 0l0 -1.40625l8.296875 0l0 1.40625zm0 -3.5546875l-8.296875 0l0 -1.265625l1.171875 0q-1.359375 -0.90625 -1.359375 -2.640625q0 -0.75 0.265625 -1.375q0.265625 -0.625 0.703125 -0.9375q0.4375 -0.3125 1.046875 -0.4375q0.390625 -0.078125 1.359375 -0.078125l5.109375 0l0 1.40625l-5.046875 0q-0.859375 0 -1.28125 0.171875q-0.4375 0.15625 -0.6875 0.578125q-0.25 0.40625 -0.25 0.96875q0 0.90625 0.578125 1.5625q0.5625 0.640625 2.15625 0.640625l4.53125 0l0 1.40625zm-1.03125 -14.3046875q0.671875 0.78125 0.953125 1.5q0.265625 0.71875 0.265625 1.546875q0 1.375 -0.671875 2.109375q-0.671875 0.734375 -1.703125 0.734375q-0.609375 0 -1.109375 -0.28125q-0.515625 -0.28125 -0.8125 -0.71875q-0.3125 -0.453125 -0.46875 -1.015625q-0.109375 -0.421875 -0.203125 -1.25q-0.203125 -1.703125 -0.484375 -2.515625q-0.296875 0 -0.375 0q-0.859375 0 -1.203125 0.390625q-0.484375 0.546875 -0.484375 1.609375q0 0.984375 0.359375 1.46875q0.34375 0.46875 1.21875 0.6875l-0.1875 1.375q-0.875 -0.1875 -1.421875 -0.609375q-0.546875 -0.4375 -0.828125 -1.25q-0.296875 -0.8125 -0.296875 -1.875q0 -1.0625 0.25 -1.71875q0.25 -0.671875 0.625 -0.984375q0.375 -0.3125 0.953125 -0.4375q0.359375 -0.078125 1.296875 -0.078125l1.875 0q1.96875 0 2.484375 -0.078125q0.515625 -0.09375 1.0 -0.359375l0 1.46875q-0.4375 0.21875 -1.03125 0.28125zm-3.140625 0.109375q0.3125 0.765625 0.53125 2.296875q0.125 0.875 0.28125 1.234375q0.15625 0.359375 0.46875 0.5625q0.296875 0.1875 0.65625 0.1875q0.5625 0 0.9375 -0.421875q0.375 -0.4375 0.375 -1.25q0 -0.8125 -0.34375 -1.4375q-0.359375 -0.640625 -0.984375 -0.9375q-0.46875 -0.234375 -1.40625 -0.234375l-0.515625 0zm4.171875 -3.5703125l-11.453125 0l0 -1.40625l11.453125 0l0 1.40625z" fill-rule="nonzero"/></g><path fill="#000000" fill-opacity="0.0" d="m91.94751 88.52231l34.488182 106.17323" fill-rule="evenodd"/><path stroke="#595959" stroke-width="1.0" stroke-linejoin="round" stroke-linecap="butt" d="m91.94751 88.52231l32.634552 100.466736" fill-rule="evenodd"/><path fill="#595959" stroke="#595959" stroke-width="1.0" stroke-linecap="butt" d="m123.01112 189.49933l2.972931 3.8058167l0.16893768 -4.8263855z" fill-rule="evenodd"/><path fill="#000000" fill-opacity="0.0" d="m201.54861 194.69554l34.48819 82.14174" fill-rule="evenodd"/><path stroke="#595959" stroke-width="1.0" stroke-linejoin="round" stroke-linecap="butt" d="m201.54861 194.69554l32.165436 76.60954" fill-rule="evenodd"/><path fill="#595959" stroke="#595959" stroke-width="1.0" stroke-linecap="butt" d="m232.19112 271.94452l3.2797546 3.5448303l-0.23387146 -4.8236694z" fill-rule="evenodd"/><path fill="#000000" fill-opacity="0.0" d="m284.05026 276.83728l34.48816 82.14172" fill-rule="evenodd"/><path stroke="#595959" stroke-width="1.0" stroke-linejoin="round" stroke-linecap="butt" d="m284.05023 276.83728l32.165436 76.60956" fill-rule="evenodd"/><path fill="#595959" stroke="#595959" stroke-width="1.0" stroke-linecap="butt" d="m314.69275 354.08627l3.2797546 3.5448303l-0.23388672 -4.8237z" fill-rule="evenodd"/><path fill="#000000" fill-opacity="0.0" d="m366.55188 358.979l34.48819 82.14172" fill-rule="evenodd"/><path stroke="#595959" stroke-width="1.0" stroke-linejoin="round" stroke-linecap="butt" d="m366.55188 358.979l32.165436 76.60959" fill-rule="evenodd"/><path fill="#595959" stroke="#595959" stroke-width="1.0" stroke-linecap="butt" d="m397.19437 436.228l3.2797546 3.5448303l-0.2338562 -4.8236694z" fill-rule="evenodd"/><path fill="#000000" fill-opacity="0.0" d="m449.05353 441.12073l41.417297 0" fill-rule="evenodd"/><path stroke="#595959" stroke-width="1.0" stroke-linejoin="round" stroke-linecap="butt" d="m449.05353 441.12073l35.417328 0" fill-rule="evenodd"/><path fill="#595959" stroke="#595959" stroke-width="1.0" stroke-linecap="butt" d="m484.47086 442.77246l4.538086 -1.6517334l-4.538086 -1.6517334z" fill-rule="evenodd"/><path fill="#000000" fill-opacity="0.0" d="m538.48425 441.12073l31.02362 -82.14172" fill-rule="evenodd"/><path stroke="#595959" stroke-width="1.0" stroke-linejoin="round" stroke-linecap="butt" d="m538.4843 441.12073l28.903625 -76.52869" fill-rule="evenodd"/><path fill="#595959" stroke="#595959" stroke-width="1.0" stroke-linecap="butt" d="m568.93317 365.1756l0.05822754 -4.8289795l-3.1486206 3.6618042z" fill-rule="evenodd"/><path fill="#000000" fill-opacity="0.0" d="m366.55188 358.979l202.96063 0" fill-rule="evenodd"/><path stroke="#595959" stroke-width="1.0" stroke-linejoin="round" stroke-linecap="butt" d="m366.55188 358.979l196.96063 0" fill-rule="evenodd"/><path fill="#595959" stroke="#595959" stroke-width="1.0" stroke-linecap="butt" d="m563.5125 360.63074l4.538086 -1.6517334l-4.538086 -1.6517334z" fill-rule="evenodd"/><path fill="#000000" fill-opacity="0.0" d="m284.05026 276.83728l364.50394 0" fill-rule="evenodd"/><path stroke="#595959" stroke-width="1.0" stroke-linejoin="round" stroke-linecap="butt" d="m284.05023 276.83728l358.50397 0" fill-rule="evenodd"/><path fill="#595959" stroke="#595959" stroke-width="1.0" stroke-linecap="butt" d="m642.5542 278.489l4.538086 -1.6517334l-4.538086 -1.6517334z" fill-rule="evenodd"/><path fill="#000000" fill-opacity="0.0" d="m617.52136 358.979l31.02362 -82.14172" fill-rule="evenodd"/><path stroke="#595959" stroke-width="1.0" stroke-linejoin="round" stroke-linecap="butt" d="m617.52136 358.979l28.903687 -76.52872" fill-rule="evenodd"/><path fill="#595959" stroke="#595959" stroke-width="1.0" stroke-linecap="butt" d="m647.9702 283.03387l0.05822754 -4.8289795l-3.1486206 3.6617737z" fill-rule="evenodd"/><path fill="#000000" fill-opacity="0.0" d="m201.54861 194.69554l529.51184 0" fill-rule="evenodd"/><path stroke="#595959" stroke-width="1.0" stroke-linejoin="round" stroke-linecap="butt" d="m201.54861 194.69554l523.51184 0" fill-rule="evenodd"/><path fill="#595959" stroke="#595959" stroke-width="1.0" stroke-linecap="butt" d="m725.0604 196.34727l4.538147 -1.6517334l-4.538147 -1.6517334z" fill-rule="evenodd"/><path fill="#000000" fill-opacity="0.0" d="m696.5584 276.83728l34.48822 -82.14174" fill-rule="evenodd"/><path stroke="#595959" stroke-width="1.0" stroke-linejoin="round" stroke-linecap="butt" d="m696.5584 276.83728l32.165405 -76.60957" fill-rule="evenodd"/><path fill="#595959" stroke="#595959" stroke-width="1.0" stroke-linecap="butt" d="m730.24677 200.86713l0.23388672 -4.8236694l-3.2797241 3.544815z" fill-rule="evenodd"/><path fill="#000000" fill-opacity="0.0" d="m91.94751 88.52231l721.6063 0" fill-rule="evenodd"/><path stroke="#595959" stroke-width="1.0" stroke-linejoin="round" stroke-linecap="butt" d="m91.94751 88.52231l715.6063 0" fill-rule="evenodd"/><path fill="#595959" stroke="#595959" stroke-width="1.0" stroke-linecap="butt" d="m807.55383 90.17404l4.538086 -1.6517334l-4.538086 -1.6517334z" fill-rule="evenodd"/><path fill="#000000" fill-opacity="0.0" d="m779.0735 194.69554l34.48822 -106.17323" fill-rule="evenodd"/><path stroke="#595959" stroke-width="1.0" stroke-linejoin="round" stroke-linecap="butt" d="m779.0735 194.69554l32.63452 -100.46674" fill-rule="evenodd"/><path fill="#595959" stroke="#595959" stroke-width="1.0" stroke-linecap="butt" d="m813.279 94.73908l-0.16894531 -4.8263855l-2.9729614 3.8058167z" fill-rule="evenodd"/><path fill="#000000" fill-opacity="0.0" d="m7.8792653 88.52231l21.889765 0" fill-rule="evenodd"/><path stroke="#595959" stroke-width="1.0" stroke-linejoin="round" stroke-linecap="butt" d="m7.8792653 88.52231l15.889765 0" fill-rule="evenodd"/><path fill="#595959" stroke="#595959" stroke-width="1.0" stroke-linecap="butt" d="m23.76903 90.17404l4.5380974 -1.6517334l-4.5380974 -1.6517334z" fill-rule="evenodd"/><path fill="#000000" fill-opacity="0.0" d="m920.93176 88.52231l21.88977 0" fill-rule="evenodd"/><path stroke="#595959" stroke-width="1.0" stroke-linejoin="round" stroke-linecap="butt" d="m920.93176 88.52231l15.8897705 0" fill-rule="evenodd"/><path fill="#595959" stroke="#595959" stroke-width="1.0" stroke-linecap="butt" d="m936.82153 90.17404l4.538086 -1.6517334l-4.538086 -1.6517334z" fill-rule="evenodd"/><g filter="url(#shadowFilter-gc692dc1958_0_24.13)"><use xlink:href="#gc692dc1958_0_24.13" transform="matrix(1.0 0.0 0.0 1.0 0.0 2.0)"/></g><defs><filter id="shadowFilter-gc692dc1958_0_24.13" filterUnits="userSpaceOnUse"><feGaussianBlur in="SourceAlpha" stdDeviation="2.0" result="blur"/><feComponentTransfer in="blur" color-interpolation-filters="sRGB"><feFuncR type="linear" slope="0" intercept="0.0"/><feFuncG type="linear" slope="0" intercept="0.0"/><feFuncB type="linear" slope="0" intercept="0.0"/><feFuncA type="linear" slope="0.5" intercept="0"/></feComponentTransfer></filter></defs><g id="gc692dc1958_0_24.13"><path fill="#6fa8dc" d="m648.545 318.11285l0 -82.55118l48.0 0l0 82.55118z" fill-rule="evenodd"/><path stroke="#595959" stroke-width="1.0" stroke-linejoin="round" stroke-linecap="butt" d="m648.545 318.11285l0 -82.55118l48.0 0l0 82.55118z" fill-rule="evenodd"/><path fill="#000000" d="m677.62494 301.50436l-0.953125 0q1.125 0.71875 1.125 2.125q0 0.90625 -0.5 1.671875q-0.5 0.75 -1.390625 1.171875q-0.90625 0.421875 -2.078125 0.421875q-1.140625 0 -2.0625 -0.375q-0.921875 -0.390625 -1.40625 -1.140625q-0.5 -0.765625 -0.5 -1.703125q0 -0.6875 0.296875 -1.21875q0.28125 -0.53125 0.734375 -0.875l-3.75 0l0 -1.28125l10.484375 0l0 1.203125zm-3.796875 4.0625q1.46875 0 2.1875 -0.609375q0.71875 -0.625 0.71875 -1.453125q0 -0.84375 -0.6875 -1.4375q-0.6875 -0.59375 -2.109375 -0.59375q-1.5625 0 -2.28125 0.609375q-0.734375 0.59375 -0.734375 1.484375q0 0.84375 0.703125 1.421875q0.703125 0.578125 2.203125 0.578125zm1.34375 -12.494873l0.171875 -1.328125q1.171875 0.3125 1.8125 1.171875q0.640625 0.84375 0.640625 2.171875q0 1.671875 -1.015625 2.65625q-1.03125 0.96875 -2.890625 0.96875q-1.921875 0 -2.96875 -0.984375q-1.0625 -1.0 -1.0625 -2.578125q0 -1.515625 1.03125 -2.484375q1.03125 -0.96875 2.921875 -0.96875q0.109375 0 0.34375 0.015625l0 5.65625q1.25 -0.0625 1.921875 -0.703125q0.65625 -0.640625 0.65625 -1.59375q0 -0.703125 -0.359375 -1.203125q-0.375 -0.5 -1.203125 -0.796875zm-2.078125 4.234375l0 -4.25q-0.953125 0.09375 -1.4375 0.484375q-0.75 0.625 -0.75 1.609375q0 0.875 0.59375 1.484375q0.59375 0.609375 1.59375 0.671875zm1.75 -12.135468l0.15625 -1.265625q1.3125 0.203125 2.0625 1.0625q0.734375 0.84375 0.734375 2.09375q0 1.5625 -1.015625 2.515625q-1.03125 0.9375 -2.921875 0.9375q-1.234375 0 -2.15625 -0.40625q-0.921875 -0.40625 -1.375 -1.234375q-0.46875 -0.84375 -0.46875 -1.8125q0 -1.25 0.625 -2.03125q0.625 -0.78125 1.765625 -1.015625l0.203125 1.265625q-0.765625 0.171875 -1.15625 0.625q-0.390625 0.453125 -0.390625 1.09375q0 0.984375 0.703125 1.59375q0.703125 0.609375 2.203125 0.609375q1.53125 0 2.234375 -0.578125q0.6875 -0.59375 0.6875 -1.546875q0 -0.75 -0.453125 -1.265625q-0.46875 -0.515625 -1.4375 -0.640625zm-1.015625 -1.890625q-2.109375 0 -3.125 -1.171875q-0.84375 -0.984375 -0.84375 -2.390625q0 -1.578125 1.03125 -2.5625q1.015625 -1.0 2.828125 -1.0q1.46875 0 2.3125 0.4375q0.828125 0.4375 1.296875 1.28125q0.46875 0.84375 0.46875 1.84375q0 1.59375 -1.015625 2.578125q-1.03125 0.984375 -2.953125 0.984375zm0 -1.328125q1.453125 0 2.1875 -0.625q0.71875 -0.640625 0.71875 -1.609375q0 -0.96875 -0.71875 -1.59375q-0.734375 -0.640625 -2.234375 -0.640625q-1.40625 0 -2.125 0.640625q-0.734375 0.640625 -0.734375 1.59375q0 0.96875 0.71875 1.609375q0.71875 0.625 2.1875 0.625zm3.796875 -12.229248l-0.953125 0q1.125 0.71875 1.125 2.125q0 0.90625 -0.5 1.671875q-0.5 0.75 -1.390625 1.171875q-0.90625 0.421875 -2.078125 0.421875q-1.140625 0 -2.0625 -0.375q-0.921875 -0.390625 -1.40625 -1.140625q-0.5 -0.765625 -0.5 -1.703125q0 -0.6875 0.296875 -1.21875q0.28125 -0.53125 0.734375 -0.875l-3.75 0l0 -1.28125l10.484375 0l0 1.203125zm-3.796875 4.0625q1.46875 0 2.1875 -0.609375q0.71875 -0.625 0.71875 -1.453125q0 -0.84375 -0.6875 -1.4375q-0.6875 -0.59375 -2.109375 -0.59375q-1.5625 0 -2.28125 0.609375q-0.734375 0.59375 -0.734375 1.484375q0 0.84375 0.703125 1.421875q0.703125 0.578125 2.203125 0.578125zm1.34375 -12.494843l0.171875 -1.328125q1.171875 0.3125 1.8125 1.171875q0.640625 0.84375 0.640625 2.171875q0 1.671875 -1.015625 2.65625q-1.03125 0.96875 -2.890625 0.96875q-1.921875 0 -2.96875 -0.984375q-1.0625 -1.0 -1.0625 -2.578125q0 -1.515625 1.03125 -2.484375q1.03125 -0.96875 2.921875 -0.96875q0.109375 0 0.34375 0.015625l0 5.65625q1.25 -0.0625 1.921875 -0.703125q0.65625 -0.640625 0.65625 -1.59375q0 -0.703125 -0.359375 -1.203125q-0.375 -0.5 -1.203125 -0.796875zm-2.078125 4.234375l0 -4.25q-0.953125 0.09375 -1.4375 0.484375q-0.75 0.625 -0.75 1.609375q0 0.875 0.59375 1.484375q0.59375 0.609375 1.59375 0.671875zm4.53125 -7.166748l-7.59375 0l0 -1.15625l1.140625 0q-0.796875 -0.453125 -1.046875 -0.828125q-0.265625 -0.375 -0.265625 -0.8125q0 -0.65625 0.40625 -1.328125l1.203125 0.4375q-0.28125 0.46875 -0.28125 0.953125q0 0.421875 0.25 0.765625q0.25 0.328125 0.703125 0.46875q0.6875 0.21875 1.5 0.21875l3.984375 0l0 1.28125zm0 -9.380646l0 1.28125l-8.203125 0q0.4375 0.46875 0.890625 1.21875q0.4375 0.75 0.65625 1.359375l-1.25 0q-0.5 -1.078125 -1.21875 -1.890625q-0.734375 -0.8125 -1.40625 -1.140625l0 -0.828125l10.53125 0z" fill-rule="nonzero"/></g><g filter="url(#shadowFilter-gc692dc1958_0_24.14)"><use xlink:href="#gc692dc1958_0_24.14" transform="matrix(1.0 0.0 0.0 1.0 0.0 2.0)"/></g><defs><filter id="shadowFilter-gc692dc1958_0_24.14" filterUnits="userSpaceOnUse"><feGaussianBlur in="SourceAlpha" stdDeviation="2.0" result="blur"/><feComponentTransfer in="blur" color-interpolation-filters="sRGB"><feFuncR type="linear" slope="0" intercept="0.0"/><feFuncG type="linear" slope="0" intercept="0.0"/><feFuncB type="linear" slope="0" intercept="0.0"/><feFuncA type="linear" slope="0.5" intercept="0"/></feComponentTransfer></filter></defs><g id="gc692dc1958_0_24.14"><path fill="#6fa8dc" d="m731.0594 235.97113l0 -82.55118l48.0 0l0 82.55118z" fill-rule="evenodd"/><path stroke="#595959" stroke-width="1.0" stroke-linejoin="round" stroke-linecap="butt" d="m731.0594 235.97113l0 -82.55118l48.0 0l0 82.55118z" fill-rule="evenodd"/><path fill="#000000" d="m760.1394 219.36263l-0.953125 0q1.125 0.71875 1.125 2.125q0 0.90625 -0.5 1.671875q-0.5 0.75 -1.390625 1.171875q-0.90625 0.421875 -2.078125 0.421875q-1.140625 0 -2.0625 -0.375q-0.921875 -0.390625 -1.40625 -1.140625q-0.5 -0.765625 -0.5 -1.703125q0 -0.6875 0.296875 -1.21875q0.28125 -0.53125 0.734375 -0.875l-3.75 0l0 -1.28125l10.484375 0l0 1.203125zm-3.796875 4.0625q1.46875 0 2.1875 -0.609375q0.71875 -0.625 0.71875 -1.453125q0 -0.84375 -0.6875 -1.4375q-0.6875 -0.59375 -2.109375 -0.59375q-1.5625 0 -2.28125 0.609375q-0.734375 0.59375 -0.734375 1.484375q0 0.84375 0.703125 1.421875q0.703125 0.578125 2.203125 0.578125zm1.34375 -12.494858l0.171875 -1.328125q1.171875 0.3125 1.8125 1.171875q0.640625 0.84375 0.640625 2.171875q0 1.671875 -1.015625 2.65625q-1.03125 0.96875 -2.890625 0.96875q-1.921875 0 -2.96875 -0.984375q-1.0625 -1.0 -1.0625 -2.578125q0 -1.515625 1.03125 -2.484375q1.03125 -0.96875 2.921875 -0.96875q0.109375 0 0.34375 0.015625l0 5.65625q1.25 -0.0625 1.921875 -0.703125q0.65625 -0.640625 0.65625 -1.59375q0 -0.703125 -0.359375 -1.203125q-0.375 -0.5 -1.203125 -0.796875zm-2.078125 4.234375l0 -4.25q-0.953125 0.09375 -1.4375 0.484375q-0.75 0.625 -0.75 1.609375q0 0.875 0.59375 1.484375q0.59375 0.609375 1.59375 0.671875zm1.75 -12.135483l0.15625 -1.265625q1.3125 0.203125 2.0625 1.0625q0.734375 0.84375 0.734375 2.09375q0 1.5625 -1.015625 2.515625q-1.03125 0.9375 -2.921875 0.9375q-1.234375 0 -2.15625 -0.40625q-0.921875 -0.40625 -1.375 -1.234375q-0.46875 -0.84375 -0.46875 -1.8125q0 -1.25 0.625 -2.03125q0.625 -0.78125 1.765625 -1.015625l0.203125 1.265625q-0.765625 0.171875 -1.15625 0.625q-0.390625 0.453125 -0.390625 1.09375q0 0.984375 0.703125 1.59375q0.703125 0.609375 2.203125 0.609375q1.53125 0 2.234375 -0.578125q0.6875 -0.59375 0.6875 -1.546875q0 -0.75 -0.453125 -1.265625q-0.46875 -0.515625 -1.4375 -0.640625zm-1.015625 -1.890625q-2.109375 0 -3.125 -1.171875q-0.84375 -0.984375 -0.84375 -2.390625q0 -1.578125 1.03125 -2.5625q1.015625 -1.0 2.828125 -1.0q1.46875 0 2.3125 0.4375q0.828125 0.4375 1.296875 1.28125q0.46875 0.84375 0.46875 1.84375q0 1.59375 -1.015625 2.578125q-1.03125 0.984375 -2.953125 0.984375zm0 -1.328125q1.453125 0 2.1875 -0.625q0.71875 -0.640625 0.71875 -1.609375q0 -0.96875 -0.71875 -1.59375q-0.734375 -0.640625 -2.234375 -0.640625q-1.40625 0 -2.125 0.640625q-0.734375 0.640625 -0.734375 1.59375q0 0.96875 0.71875 1.609375q0.71875 0.625 2.1875 0.625zm3.796875 -12.229233l-0.953125 0q1.125 0.71875 1.125 2.125q0 0.90625 -0.5 1.671875q-0.5 0.75 -1.390625 1.171875q-0.90625 0.421875 -2.078125 0.421875q-1.140625 0 -2.0625 -0.375q-0.921875 -0.390625 -1.40625 -1.140625q-0.5 -0.765625 -0.5 -1.703125q0 -0.6875 0.296875 -1.21875q0.28125 -0.53125 0.734375 -0.875l-3.75 0l0 -1.28125l10.484375 0l0 1.203125zm-3.796875 4.0625q1.46875 0 2.1875 -0.609375q0.71875 -0.625 0.71875 -1.453125q0 -0.84375 -0.6875 -1.4375q-0.6875 -0.59375 -2.109375 -0.59375q-1.5625 0 -2.28125 0.609375q-0.734375 0.59375 -0.734375 1.484375q0 0.84375 0.703125 1.421875q0.703125 0.578125 2.203125 0.578125zm1.34375 -12.494858l0.171875 -1.328125q1.171875 0.3125 1.8125 1.171875q0.640625 0.84375 0.640625 2.171875q0 1.671875 -1.015625 2.65625q-1.03125 0.96875 -2.890625 0.96875q-1.921875 0 -2.96875 -0.984375q-1.0625 -1.0 -1.0625 -2.578125q0 -1.515625 1.03125 -2.484375q1.03125 -0.96875 2.921875 -0.96875q0.109375 0 0.34375 0.015625l0 5.65625q1.25 -0.0625 1.921875 -0.703125q0.65625 -0.640625 0.65625 -1.59375q0 -0.703125 -0.359375 -1.203125q-0.375 -0.5 -1.203125 -0.796875zm-2.078125 4.234375l0 -4.25q-0.953125 0.09375 -1.4375 0.484375q-0.75 0.625 -0.75 1.609375q0 0.875 0.59375 1.484375q0.59375 0.609375 1.59375 0.671875zm4.53125 -7.166733l-7.59375 0l0 -1.15625l1.140625 0q-0.796875 -0.453125 -1.046875 -0.828125q-0.265625 -0.375 -0.265625 -0.8125q0 -0.65625 0.40625 -1.328125l1.203125 0.4375q-0.28125 0.46875 -0.28125 0.953125q0 0.421875 0.25 0.765625q0.25 0.328125 0.703125 0.46875q0.6875 0.21875 1.5 0.21875l3.984375 0l0 1.28125zm-1.234375 -11.302521l1.234375 0l0 6.9375q-0.46875 0.015625 -0.890625 -0.15625q-0.71875 -0.265625 -1.40625 -0.84375q-0.6875 -0.59375 -1.578125 -1.6875q-1.40625 -1.71875 -2.21875 -2.3125q-0.828125 -0.609375 -1.5625 -0.609375q-0.765625 0 -1.28125 0.5625q-0.53125 0.546875 -0.53125 1.421875q0 0.921875 0.5625 1.484375q0.5625 0.5625 1.546875 0.5625l-0.140625 1.328125q-1.484375 -0.140625 -2.25 -1.015625q-0.78125 -0.890625 -0.78125 -2.390625q0 -1.515625 0.84375 -2.390625q0.828125 -0.875 2.0625 -0.875q0.640625 0 1.25 0.265625q0.59375 0.25 1.265625 0.84375q0.671875 0.59375 1.859375 1.984375q0.96875 1.15625 1.3125 1.484375q0.34375 0.328125 0.703125 0.546875l0 -5.140625z" fill-rule="nonzero"/></g><g filter="url(#shadowFilter-gc692dc1958_0_24.15)"><use xlink:href="#gc692dc1958_0_24.15" transform="matrix(1.0 0.0 0.0 1.0 0.0 2.0)"/></g><defs><filter id="shadowFilter-gc692dc1958_0_24.15" filterUnits="userSpaceOnUse"><feGaussianBlur in="SourceAlpha" stdDeviation="2.0" result="blur"/><feComponentTransfer in="blur" color-interpolation-filters="sRGB"><feFuncR type="linear" slope="0" intercept="0.0"/><feFuncG type="linear" slope="0" intercept="0.0"/><feFuncB type="linear" slope="0" intercept="0.0"/><feFuncA type="linear" slope="0.5" intercept="0"/></feComponentTransfer></filter></defs><g id="gc692dc1958_0_24.15"><path fill="#6fa8dc" d="m813.5607 129.7979l0 -82.55118l48.0 0l0 82.55118z" fill-rule="evenodd"/><path stroke="#595959" stroke-width="1.0" stroke-linejoin="round" stroke-linecap="butt" d="m813.5607 129.7979l0 -82.55118l48.0 0l0 82.55118z" fill-rule="evenodd"/><path fill="#000000" d="m842.64075 113.18939l-0.953125 0q1.125 0.71875 1.125 2.125q0 0.90625 -0.5 1.671875q-0.5 0.75 -1.390625 1.171875q-0.90625 0.421875 -2.078125 0.421875q-1.140625 0 -2.0625 -0.375q-0.921875 -0.390625 -1.40625 -1.140625q-0.5 -0.765625 -0.5 -1.703125q0 -0.6875 0.296875 -1.21875q0.28125 -0.53125 0.734375 -0.875l-3.75 0l0 -1.28125l10.484375 0l0 1.203125zm-3.796875 4.0625q1.46875 0 2.1875 -0.609375q0.71875 -0.625 0.71875 -1.453125q0 -0.84375 -0.6875 -1.4375q-0.6875 -0.59375 -2.109375 -0.59375q-1.5625 0 -2.28125 0.609375q-0.734375 0.59375 -0.734375 1.484375q0 0.84375 0.703125 1.421875q0.703125 0.578125 2.203125 0.578125zm1.34375 -12.494858l0.171875 -1.328125q1.171875 0.3125 1.8125 1.171875q0.640625 0.84375 0.640625 2.171875q0 1.671875 -1.015625 2.65625q-1.03125 0.96875 -2.890625 0.96875q-1.921875 0 -2.96875 -0.984375q-1.0625 -1.0 -1.0625 -2.578125q0 -1.515625 1.03125 -2.484375q1.03125 -0.96875 2.921875 -0.96875q0.109375 0 0.34375 0.015625l0 5.65625q1.25 -0.0625 1.921875 -0.703125q0.65625 -0.640625 0.65625 -1.59375q0 -0.703125 -0.359375 -1.203125q-0.375 -0.5 -1.203125 -0.796875zm-2.078125 4.234375l0 -4.25q-0.953125 0.09375 -1.4375 0.484375q-0.75 0.625 -0.75 1.609375q0 0.875 0.59375 1.484375q0.59375 0.609375 1.59375 0.671875zm1.75 -12.135483l0.15625 -1.265625q1.3125 0.203125 2.0625 1.0625q0.734375 0.84375 0.734375 2.09375q0 1.5625 -1.015625 2.515625q-1.03125 0.9375 -2.921875 0.9375q-1.234375 0 -2.15625 -0.40625q-0.921875 -0.40625 -1.375 -1.234375q-0.46875 -0.84375 -0.46875 -1.8125q0 -1.25 0.625 -2.03125q0.625 -0.78125 1.765625 -1.015625l0.203125 1.265625q-0.765625 0.171875 -1.15625 0.625q-0.390625 0.453125 -0.390625 1.09375q0 0.984375 0.703125 1.59375q0.703125 0.609375 2.203125 0.609375q1.53125 0 2.234375 -0.578125q0.6875 -0.59375 0.6875 -1.546875q0 -0.75 -0.453125 -1.265625q-0.46875 -0.515625 -1.4375 -0.640625zm-1.015625 -1.890625q-2.109375 0 -3.125 -1.171875q-0.84375 -0.984375 -0.84375 -2.390625q0 -1.578125 1.03125 -2.5625q1.015625 -1.0 2.828125 -1.0q1.46875 0 2.3125 0.4375q0.828125 0.4375 1.296875 1.28125q0.46875 0.84375 0.46875 1.84375q0 1.59375 -1.015625 2.578125q-1.03125 0.984375 -2.953125 0.984375zm0 -1.328125q1.453125 0 2.1875 -0.625q0.71875 -0.640625 0.71875 -1.609375q0 -0.96875 -0.71875 -1.59375q-0.734375 -0.640625 -2.234375 -0.640625q-1.40625 0 -2.125 0.640625q-0.734375 0.640625 -0.734375 1.59375q0 0.96875 0.71875 1.609375q0.71875 0.625 2.1875 0.625zm3.796875 -12.229233l-0.953125 0q1.125 0.71875 1.125 2.125q0 0.90625 -0.5 1.671875q-0.5 0.75 -1.390625 1.171875q-0.90625 0.421875 -2.078125 0.421875q-1.140625 0 -2.0625 -0.375q-0.921875 -0.390625 -1.40625 -1.140625q-0.5 -0.765625 -0.5 -1.703125q0 -0.6875 0.296875 -1.21875q0.28125 -0.53125 0.734375 -0.875l-3.75 0l0 -1.28125l10.484375 0l0 1.203125zm-3.796875 4.0625q1.46875 0 2.1875 -0.609375q0.71875 -0.625 0.71875 -1.453125q0 -0.84375 -0.6875 -1.4375q-0.6875 -0.59375 -2.109375 -0.59375q-1.5625 0 -2.28125 0.609375q-0.734375 0.59375 -0.734375 1.484375q0 0.84375 0.703125 1.421875q0.703125 0.578125 2.203125 0.578125zm1.34375 -12.494858l0.171875 -1.328125q1.171875 0.3125 1.8125 1.171875q0.640625 0.84375 0.640625 2.171875q0 1.671875 -1.015625 2.65625q-1.03125 0.96875 -2.890625 0.96875q-1.921875 0 -2.96875 -0.984375q-1.0625 -1.0 -1.0625 -2.578125q0 -1.515625 1.03125 -2.484375q1.03125 -0.96875 2.921875 -0.96875q0.109375 0 0.34375 0.015625l0 5.65625q1.25 -0.0625 1.921875 -0.703125q0.65625 -0.640625 0.65625 -1.59375q0 -0.703125 -0.359375 -1.203125q-0.375 -0.5 -1.203125 -0.796875zm-2.078125 4.234375l0 -4.25q-0.953125 0.09375 -1.4375 0.484375q-0.75 0.625 -0.75 1.609375q0 0.875 0.59375 1.484375q0.59375 0.609375 1.59375 0.671875zm4.53125 -7.166733l-7.59375 0l0 -1.15625l1.140625 0q-0.796875 -0.453125 -1.046875 -0.828125q-0.265625 -0.375 -0.265625 -0.8125q0 -0.65625 0.40625 -1.328125l1.203125 0.4375q-0.28125 0.46875 -0.28125 0.953125q0 0.421875 0.25 0.765625q0.25 0.328125 0.703125 0.46875q0.6875 0.21875 1.5 0.21875l3.984375 0l0 1.28125zm-2.765625 -4.5368958l-0.171875 -1.296875q1.09375 -0.21874619 1.578125 -0.7499962q0.484375 -0.53125 0.484375 -1.296875q0 -0.90625 -0.625 -1.53125q-0.640625 -0.640625 -1.5625 -0.640625q-0.890625 0 -1.46875 0.59375q-0.578125 0.578125 -0.578125 1.46875q0 0.359375 0.140625 0.90625l-1.125 -0.140625q0.015625 -0.125 0.015625 -0.203125q0 -0.828125 -0.421875 -1.484375q-0.4375 -0.65625 -1.34375 -0.65625q-0.703125 0 -1.15625 0.484375q-0.46875 0.46875 -0.46875 1.234375q0 0.75 0.46875 1.25q0.46875 0.5 1.421875 0.6406212l-0.234375 1.28125q-1.296875 -0.234375 -2.0 -1.0625q-0.71875 -0.8437462 -0.71875 -2.0937462q0 -0.859375 0.375 -1.578125q0.359375 -0.71875 1.0 -1.09375q0.640625 -0.390625 1.34375 -0.390625q0.6875 0 1.25 0.375q0.546875 0.359375 0.875 1.0625q0.21875 -0.921875 0.90625 -1.4375q0.671875 -0.515625 1.6875 -0.515625q1.375 0 2.328125 1.0q0.953125 1.0 0.953125 2.53125q0 1.390625 -0.8125 2.2968712q-0.828125 0.90625 -2.140625 1.046875z" fill-rule="nonzero"/></g></g></svg>